#N canvas 129 81 927 680 10;
#X declare -lib timbreID/timbreIDLib;
#X obj 59 612 nbx 5 32 -1e+37 1e+37 0 0 empty empty empty 0 -8 0 32
-262144 -1 -1 0 256;
#X msg 155 291 analyze \$1 1024;
#X obj 4 4 cnv 10 400 10 empty empty empty 20 12 0 14 -233017 -66577
0;
#X obj 4 4 cnv 10 10 400 empty empty empty 20 12 0 14 -233017 -66577
0;
#N canvas 287 105 969 476 other-settings 0;
#X msg 54 48 set another-sample-array;
#X msg 93 104 samplerate 48000;
#X text 242 47 Read from a different array;
#X obj 54 415 outlet;
#X text 227 103 Specify your sample's sampling rate. (default: 44100)
;
#X msg 333 344 print;
#X text 417 345 Print the internal settings to the post window;
#X msg 153 164 max_search_range 1000;
#X msg 273 294 onset_num_samps_thresh 20;
#X text 455 226 Specify the sample magnitude threshold that the signal
must fall below to locate the initial onset. (default: 0.005);
#X text 477 282 Specify the number of consecutive samples for which
the signal must stay below the magnitude threshold in order to find
the initial onset. (default: 10);
#X text 327 152 Specify the maximum time in milliseconds before the
peak sample of an attack to search for the initial onset. This determines
the size of the internal buffer and is separate from the analysis window
size (default: 2000ms);
#X msg 213 234 onset_samp_mag_thresh 0.0025;
#X connect 0 0 3 0;
#X connect 1 0 3 0;
#X connect 5 0 3 0;
#X connect 7 0 3 0;
#X connect 8 0 3 0;
#X connect 12 0 3 0;
#X restore 207 343 pd other-settings;
#N canvas 0 50 450 300 (subpatch) 0;
#X array \$0-waveform 1024 float 0;
#X coords 0 1 1023 -1 200 140 1 0 0;
#X restore 653 247 graph;
#N canvas 663 274 466 198 soundfile 0;
#X obj 50 93 soundfiler;
#X msg 50 68 read -skip 120000 ./audio/testing.wav \$1-sample;
#X obj 50 24 loadbang;
#X obj 50 46 f \$0;
#X obj 30 46 bng 15 250 50 0 empty empty empty 17 7 0 10 -262144 -1
-1;
#X obj 185 100 table \$0-sample 130000;
#X connect 1 0 0 0;
#X connect 2 0 3 0;
#X connect 3 0 1 0;
#X connect 4 0 3 0;
#X restore 653 397 pd soundfile;
#N canvas 719 242 369 330 waveform 0;
#X obj 46 61 inlet;
#X obj 46 82 t f f;
#X obj 46 284 outlet;
#X obj 131 131 + 1023;
#X obj 86 241 tabletool \$0-waveform;
#X msg 86 200 copy_range 0 \$3-sample \$1 \$2;
#X obj 86 164 pack f f \$0;
#X connect 0 0 1 0;
#X connect 1 0 2 0;
#X connect 1 0 6 0;
#X connect 1 1 3 0;
#X connect 3 0 6 1;
#X connect 5 0 4 0;
#X connect 6 0 5 0;
#X restore 155 269 pd waveform;
#X text 259 477 Creation argument is the name of the sample array to
read from., f 33;
#X text 662 567 Updated for timbreIDLib version 0.7;
#X msg 59 133 analyze 44100 2000;
#X text 662 587 July 2017;
#X obj 59 483 attackTime \$0-sample;
#X obj 704 85 attackTime~;
#X text 514 59 See the real-time version for more information on attack
time in general.;
#X obj 155 241 * 44100;
#X floatatom 117 530 10 0 0 0 - - -;
#X floatatom 207 530 10 0 0 0 - - -;
#N canvas 0 50 450 300 (subpatch) 0;
#X array \$0-attackSegment 11 float 0;
#X coords 0 1 10 -1 200 140 1 0 0;
#X restore 413 247 graph;
#N canvas 278 271 563 395 plot-attack-segment 0;
#X obj 115 35 inlet;
#X obj 244 35 inlet;
#X msg 134 221 copy_range 0 \$3-sample \$1 \$2;
#X obj 134 175 pack f f \$0;
#X obj 134 262 tabletool \$0-attackSegment;
#X obj 346 197 + 1;
#X obj 346 219 pack f \$0;
#X msg 346 241 \; \$2-attackSegment resize \$1;
#X obj 346 153 -;
#X obj 346 175 abs;
#X obj 115 77 t b f f;
#X obj 48 307 f \$0;
#X msg 48 329 \; \$1-attackSegment normalize 0.8 \;;
#X connect 0 0 10 0;
#X connect 1 0 8 1;
#X connect 1 0 3 1;
#X connect 2 0 4 0;
#X connect 3 0 2 0;
#X connect 5 0 6 0;
#X connect 6 0 7 0;
#X connect 8 0 9 0;
#X connect 9 0 5 0;
#X connect 10 0 11 0;
#X connect 10 1 3 0;
#X connect 10 2 8 0;
#X connect 11 0 12 0;
#X restore 117 567 pd plot-attack-segment;
#X obj 155 190 hradio 15 1 0 5 empty empty empty 0 -8 0 10 -262144
-1 -1 3;
#X obj 155 210 tabread \$0-attacks;
#N canvas 510 94 433 574 find-attacks 0;
#X msg 133 122 analyze;
#X obj 133 194 bark \$0-sample 1024 64 0.5;
#X msg 203 159 thresh -1 20;
#X obj 243 65 table \$0-attacks;
#X obj 133 254 list prepend;
#X obj 228 254 t l;
#X obj 98 282 list;
#X obj 98 304 t l l;
#X obj 137 337 list length;
#X obj 137 359 pack f \$0;
#X msg 137 381 \; \$2-attacks resize \$1 \;;
#X obj 89 424 list prepend 0;
#X obj 89 446 s \$0-attacks;
#X msg 35 477 fit_bounds;
#X obj 35 499 tabletool \$0-attacks;
#X obj 98 30 loadbang;
#X obj 98 62 t b b b b b;
#X connect 0 0 1 0;
#X connect 1 0 4 0;
#X connect 2 0 1 0;
#X connect 4 0 5 0;
#X connect 4 0 6 1;
#X connect 5 0 4 1;
#X connect 6 0 7 0;
#X connect 7 0 11 0;
#X connect 7 1 8 0;
#X connect 8 0 9 0;
#X connect 9 0 10 0;
#X connect 11 0 12 0;
#X connect 13 0 14 0;
#X connect 15 0 16 0;
#X connect 16 0 13 0;
#X connect 16 1 6 0;
#X connect 16 2 0 0;
#X connect 16 3 4 1;
#X connect 16 4 2 0;
#X restore 653 417 pd find-attacks;
#X text 58 43 Analyze a window starting at sample 44100 that is 2000
samples long (samples 44100 - 46099). [attackTime] assumes that the
window you request has an onset somewhere within it. Here \, [bark]
is used to find onsets \, and you can jump to them using the radio
button below., f 48;
#X text 297 557 Outlet 1: attack time in milliseconds;
#X text 297 577 Outlet 2: attack onset starting sample index;
#X text 297 597 Outlet 3: attack onset peak sample index;
#X obj 705 639 declare -lib timbreID/timbreIDLib;
#X connect 1 0 12 0;
#X connect 4 0 12 0;
#X connect 7 0 1 0;
#X connect 10 0 12 0;
#X connect 12 0 0 0;
#X connect 12 1 16 0;
#X connect 12 2 17 0;
#X connect 15 0 7 0;
#X connect 16 0 19 0;
#X connect 17 0 19 1;
#X connect 20 0 21 0;
#X connect 21 0 15 0;
