#N canvas 311 132 939 547 10;
#X declare -lib timbreID/timbreIDLib;
#X obj 143 128 bng 15 250 50 0 empty empty empty 17 7 0 10 -262144
-1 -1;
#X text 178 163 Change window size.;
#X obj 55 79 *~;
#X obj 84 79 tgl 15 0 empty empty empty 17 7 0 10 -262144 -1 -1 0 1
;
#X obj 107 79 *~;
#X obj 136 79 tgl 15 0 empty empty empty 17 7 0 10 -262144 -1 -1 0
1;
#X obj 55 48 noise~;
#X obj 107 48 osc~ 440;
#X obj 3 4 cnv 10 400 10 empty empty empty 20 12 0 14 -233017 -66577
0;
#X obj 3 4 cnv 10 10 400 empty empty empty 20 12 0 14 -233017 -66577
0;
#N canvas 589 81 813 615 other-settings 0;
#X obj 54 86 hradio 15 1 0 5 empty empty empty 0 -8 0 10 -262144 -1
-1 3;
#X msg 54 106 window_function \$1;
#X msg 155 217 power_spectrum \$1;
#X obj 155 199 tgl 15 0 empty empty empty 17 7 0 10 -262144 -1 -1 0
1;
#X obj 54 535 outlet;
#X text 296 217 Use power spectrum. (default: magnitude);
#X msg 113 163 filterbank 1;
#X msg 313 457 print;
#X obj 201 279 tgl 15 0 empty empty empty 17 7 0 10 -262144 -1 -1 0
1;
#X msg 201 299 spec_band_avg \$1;
#X obj 231 339 tgl 15 0 empty empty empty 17 7 0 10 -262144 -1 -1 0
1;
#X msg 231 359 filter_avg \$1;
#X text 363 459 Print current settings in the post window;
#X text 52 49 Change windowing function. Rectangular (0) \, Blackman
(1) \, Cosine (2) \, Hamming (3) \, or Hann (4). (default: Blackman)
;
#X text 213 163 Construct a new filterbank with a specific spacing.
;
#X msg 280 406 overlap 2;
#X text 361 394 Inside a subpatch with re-blocking involving overlap
(e.g. \, [block~ 4096 2]) \, you'll need to change the overlap for
things to behave properly;
#X text 257 327 If using the triangular Bark spaced filters \, you
can either sum or average the energy in each filter (default: sum)
;
#X text 227 247 Rather than sum energy in the triangular Bark spaced
filters to get the amount of energy in each Bark band \, you can average
energy in the unfiltered bins (default: OFF);
#X connect 0 0 1 0;
#X connect 1 0 4 0;
#X connect 2 0 4 0;
#X connect 3 0 2 0;
#X connect 6 0 4 0;
#X connect 7 0 4 0;
#X connect 8 0 9 0;
#X connect 9 0 4 0;
#X connect 10 0 11 0;
#X connect 11 0 4 0;
#X connect 15 0 4 0;
#X restore 216 300 pd other-settings;
#X text 681 476 Updated for timbreIDLib version 0.7;
#X obj 631 328 timbreID;
#X obj 55 442 nbx 7 32 -1e+37 1e+37 0 0 empty empty empty 0 -8 0 32
-262144 -1 -1 0 256;
#X text 463 268 This feature can be sent to the timbreID external in
order to identify timbres in real time. For more on using audio features
for classification \, see the timbreID helpfile:;
#X obj 55 408 barkSpecRolloff~ 1024 0.5 0.85;
#X text 299 400 Creation arguments are window size in samples \, filterbank
spacing in Barks \, and concentration threshold;
#X msg 207 249 concentration 0.7;
#X text 206 217 Change the concentration threshold, f 23;
#X msg 180 181 window 2000;
#X text 464 140 Audio buffering and windowing are taken care of by
the external \, so there is no need for tabreceive~ or block~. You
can set the window size with a creation argument \, or change it with
the "window" message. Window size is not required to be a power of
two. The second creation argument specifies the Bark-spacing of the
filterbank. This can also be changed later with the "filterbank" message.
The third creation argument sets the concentration threshold \, which
must be between 0 and 1.0.;
#X text 53 488 Output is the Bark frequency band below which most of
the Bark spectrum energy is concentrated.;
#X text 464 34 Bark spectrum rolloff is the Bark frequency below which
a certain amount of spectral energy is concentrated. The default concentration
is 0.85 \, but you can change this with the concentration message.
Keep in mind that roll-off reports the Bark frequency associated with
the Bark spectrum band of the filterbank being used \, and results
depend on filterbank spacing.;
#X text 140 110 Bang to output rolloff;
#X text 681 496 July 2017;
#X obj 682 517 declare -lib timbreID/timbreIDLib;
#X connect 0 0 15 0;
#X connect 2 0 15 0;
#X connect 3 0 2 1;
#X connect 4 0 15 0;
#X connect 5 0 4 1;
#X connect 6 0 2 0;
#X connect 7 0 4 0;
#X connect 10 0 15 0;
#X connect 15 0 13 0;
#X connect 17 0 15 0;
#X connect 19 0 15 0;
