#N canvas 292 117 907 620 10;
#X declare -lib timbreID/timbreIDLib;
#X obj 88 243 bng 15 250 50 0 empty empty empty 17 7 0 10 -262144 -1
-1;
#X text 150 274 Bang repeatedly...;
#X obj 126 275 tgl 15 0 empty empty empty 17 7 0 10 -262144 -1 -1 0
1;
#X obj 597 376 timbreID;
#X obj 3 4 cnv 10 400 10 empty empty empty 20 12 0 14 -233017 -66577
0;
#X obj 3 4 cnv 10 10 400 empty empty empty 20 12 0 14 -233017 -66577
0;
#N canvas 626 81 780 632 other-settings 0;
#X obj 54 86 hradio 15 1 0 5 empty empty empty 0 -8 0 10 -262144 -1
-1 0;
#X msg 54 106 window_function \$1;
#X msg 112 176 power_spectrum \$1;
#X obj 112 158 tgl 15 0 empty empty empty 17 7 0 10 -262144 -1 -1 0
1;
#X obj 54 575 outlet;
#X text 271 243 Construct a new filterbank with a specific spacing.
;
#X text 253 176 Use power spectrum. (default: magnitude);
#X text 52 49 Change windowing function. Rectangular (0) \, Blackman
(1) \, Cosine (2) \, Hamming (3) \, or Hann (4). (default: Blackman)
;
#X msg 350 504 print;
#X obj 268 384 tgl 15 0 empty empty empty 17 7 0 10 -262144 -1 -1 0
1;
#X msg 268 404 spec_band_avg \$1;
#X obj 298 444 tgl 15 0 empty empty empty 17 7 0 10 -262144 -1 -1 0
1;
#X msg 298 464 filter_avg \$1;
#X text 400 506 Print current settings in the post window;
#X text 324 432 If using the triangular Bark spaced filters \, you
can either sum or average the energy in each filter (default: sum)
;
#X text 294 352 Rather than sum energy in the triangular Bark spaced
filters to get the amount of energy in each Bark band \, you can average
energy in the unfiltered bins (default: OFF);
#X msg 213 302 overlap 2;
#X text 294 290 Inside a subpatch with re-blocking involving overlap
(e.g. \, [block~ 4096 2]) \, you'll need to change the overlap for
things to behave properly;
#X msg 171 243 filterbank 1;
#X connect 0 0 1 0;
#X connect 1 0 4 0;
#X connect 2 0 4 0;
#X connect 3 0 2 0;
#X connect 8 0 4 0;
#X connect 9 0 10 0;
#X connect 10 0 4 0;
#X connect 11 0 12 0;
#X connect 12 0 4 0;
#X connect 16 0 4 0;
#X connect 18 0 4 0;
#X restore 206 404 pd other-settings;
#X msg 162 347 window 2000;
#X text 161 329 Change analysis window size;
#X text 260 493 Creation arguments are window size in samples \, and
filterbank spacing in Barks;
#X text 635 532 Updated for timbreID version 0.7;
#X text 429 316 This feature can be sent to the timbreID external in
order to identify timbres in real time. For more on using audio features
for classification \, see the timbreID helpfile:;
#X text 430 201 Audio buffering and windowing are taken care of by
the external \, so there is no need for tabreceive~ or block~. You
can set the window size with a creation argument \, or change it with
the "window" message. Window size is not required to be a power of
two. The second creation argument specifies the Bark-spacing of the
filterbank. This can also be changed later with the "filterbank" message.
;
#X obj 46 539 nbx 7 32 -1e+37 1e+37 0 0 empty empty empty 0 -8 0 32
-262144 -1 -1 0 256;
#X obj 46 51 noise~;
#X obj 46 111 lop~;
#X obj 110 52 hsl 128 15 0 26 0 0 empty empty empty -2 -8 0 10 -262144
-1 -1 0 1;
#X floatatom 107 112 10 0 0 0 - - -;
#X obj 46 133 lop~;
#X obj 126 294 metro 100;
#X obj 46 501 barkSpecSkewness~ 1024 0.5;
#X obj 107 92 bark2freq;
#X floatatom 107 72 5 0 0 0 - - -;
#X text 85 226 Bang to output skewness;
#X text 635 552 July 2017;
#X text 430 45 Bark spectrum skewness measures the symmetry of a Bark
spectrum envelope. Positive skew means most of the energy is in the
low end \, and the envelope tapers to 0 toward the higher frequencies.
Negative skew is the opposite: most of the energy is at the high end
\, and the envelope tapers to 0 toward the low frequencies. By filtering
white noise with a low-pass filter and varying the cutoff frequency
at left \, you can get a sense of the range of values. Setting the
cutoff halfway up the Bark scale (about 12 Barks) results in a skewness
near zero \, because the filtered result has a very flat Bark spectrum.
;
#X obj 637 575 declare -lib timbreID/timbreIDLib;
#X connect 0 0 20 0;
#X connect 2 0 19 0;
#X connect 6 0 20 0;
#X connect 7 0 20 0;
#X connect 14 0 15 0;
#X connect 15 0 18 0;
#X connect 16 0 22 0;
#X connect 17 0 15 1;
#X connect 17 0 18 1;
#X connect 18 0 20 0;
#X connect 19 0 20 0;
#X connect 20 0 13 0;
#X connect 21 0 17 0;
#X connect 22 0 21 0;
