#N canvas 225 139 924 631 10;
#X declare -lib timbreID/timbreIDLib;
#N canvas 0 50 450 300 (subpatch) 0;
#X array \$0-barkSpec-graph 50 float 0;
#X coords 0 0.5 49 0 200 140 1 0 0;
#X restore 414 401 graph;
#X obj 4 4 cnv 10 400 10 empty empty empty 20 12 0 14 -233017 -66577
0;
#X obj 4 4 cnv 10 10 400 empty empty empty 20 12 0 14 -233017 -66577
0;
#X obj 64 417 barkSpecSlope~ 1024 0.5;
#N canvas 0 50 450 278 (subpatch) 0;
#X array \$0-slope-graph 2 float 0;
#X coords 0 0.25 1 -0.25 200 140 1 0 0;
#X restore 644 401 graph;
#X obj 64 55 adc~;
#N canvas 654 581 895 386 graph-slope-measure-barkSpec 0;
#X obj 114 125 nbx 7 32 -1e+37 1e+37 0 0 empty empty empty 0 -8 0 32
-262144 -1 -1 0 256;
#X obj 114 55 inlet;
#X msg 538 242 1;
#X obj 403 227 / 2;
#X obj 403 267 tabwrite \$0-slope-graph;
#X obj 403 205 t f b;
#X obj 193 267 tabwrite \$0-slope-graph;
#X obj 193 205 t f b;
#X obj 193 227 / -2;
#X msg 328 242 0;
#X obj 640 228 list prepend 0;
#X obj 640 250 s \$0-barkSpec-graph;
#X obj 640 63 r~ \$0-input;
#X obj 640 184 barkSpec~ 1024 0.5;
#X obj 682 122 r \$0-analyze;
#X connect 1 0 0 0;
#X connect 1 0 7 0;
#X connect 1 0 5 0;
#X connect 2 0 4 1;
#X connect 3 0 4 0;
#X connect 5 0 3 0;
#X connect 5 1 2 0;
#X connect 7 0 8 0;
#X connect 7 1 9 0;
#X connect 8 0 6 0;
#X connect 9 0 6 1;
#X connect 10 0 11 0;
#X connect 12 0 13 0;
#X connect 13 0 10 0;
#X connect 14 0 13 0;
#X coords 0 -1 1 1 250 70 1 100 100;
#X restore 64 471 pd graph-slope-measure-barkSpec;
#X msg 180 315 window 2000;
#X text 267 315 Change analysis window size;
#X obj 64 77 s~ \$0-input;
#X obj 64 217 r~ \$0-input;
#X obj 221 79 bng 15 250 50 0 empty empty empty 17 7 0 10 -262144 -1
-1;
#X text 292 125 Bang repeatedly...;
#X obj 268 126 tgl 15 0 empty empty empty 17 7 0 10 -262144 -1 -1 0
1;
#X obj 268 145 metro 100;
#X text 219 60 Bang to output slope;
#X obj 221 189 s \$0-analyze;
#X obj 142 267 r \$0-analyze;
#X text 680 558 Updated for timbreID version 0.7;
#N canvas 574 81 879 725 other-settings 0;
#X obj 54 86 hradio 15 1 0 5 empty empty empty 0 -8 0 10 -262144 -1
-1 1;
#X msg 54 106 window_function \$1;
#X obj 110 148 tgl 15 0 empty empty empty 17 7 0 10 -262144 -1 -1 0
1;
#X msg 110 166 normalize \$1;
#X msg 153 226 power_spectrum \$1;
#X obj 153 208 tgl 15 0 empty empty empty 17 7 0 10 -262144 -1 -1 0
1;
#X obj 54 655 outlet;
#X text 312 293 Construct a new filterbank with a specific spacing.
;
#X text 216 166 Normalize spectrum (default: ON);
#X text 294 226 Use power spectrum. (default: magnitude);
#X msg 385 549 print;
#X obj 263 366 tgl 15 0 empty empty empty 17 7 0 10 -262144 -1 -1 0
1;
#X msg 263 386 spec_band_avg \$1;
#X obj 293 426 tgl 15 0 empty empty empty 17 7 0 10 -262144 -1 -1 0
1;
#X msg 293 446 filter_avg \$1;
#X text 289 334 Rather than sum energy in the triangular Bark spaced
filters to get the amount of energy in each Bark band \, you can average
energy in the unfiltered bins. (default: OFF);
#X text 319 414 If using the triangular Bark spaced filters \, you
can either sum or average the energy in each filter .(default: sum)
;
#X text 435 551 Print current settings in the post window;
#X text 52 49 Change windowing function. Rectangular (0) \, Blackman
(1) \, Cosine (2) \, Hamming (3) \, or Hann (4). (default: Blackman)
;
#X msg 331 497 overlap 2;
#X text 412 485 Inside a subpatch with re-blocking involving overlap
(e.g. \, [block~ 4096 2]) \, you'll need to change the overlap for
things to behave properly;
#X msg 212 293 filterbank 1;
#X connect 0 0 1 0;
#X connect 1 0 6 0;
#X connect 2 0 3 0;
#X connect 3 0 6 0;
#X connect 4 0 6 0;
#X connect 5 0 4 0;
#X connect 10 0 6 0;
#X connect 11 0 12 0;
#X connect 12 0 6 0;
#X connect 13 0 14 0;
#X connect 14 0 6 0;
#X connect 19 0 6 0;
#X connect 21 0 6 0;
#X restore 232 358 pd other-settings;
#X text 481 231 This feature can be sent to the timbreID external in
order to identify timbres in real time. For more on using audio features
for classification \, see the timbreID helpfile:;
#X obj 623 285 timbreID;
#X text 481 131 Audio buffering and windowing are taken care of by
the external \, so there is no need for tabreceive~ or block~. You
can set the window size with a creation argument \, or change it with
the "window" message. Window size is not required to be a power of
two. The second creation argument specifies the Bark spacing of the
filterbank.;
#X text 482 27 Bark spectrum slope is the slope of the best-fit line
through the data points of a Bark spectrum. Here \, the input signal
and analysis commands are wirelessly sent to barkSpec~ as well so that
you can see the Bark spectrum alonside its slope. When barkSpecSlope~
receives a bang \, it spits out the Bark spectrum slope for the most
recent analysis window.;
#X text 680 578 July 2017;
#X obj 682 599 declare -lib timbreID/timbreIDLib;
#X connect 3 0 6 0;
#X connect 5 0 9 0;
#X connect 7 0 3 0;
#X connect 10 0 3 0;
#X connect 11 0 16 0;
#X connect 13 0 14 0;
#X connect 14 0 16 0;
#X connect 17 0 3 0;
#X connect 19 0 3 0;
