#N canvas 213 96 963 714 10;
#X declare -lib timbreID/timbreIDLib;
#X obj 58 592 nbx 7 32 -1e+37 1e+37 0 0 empty empty empty 0 -8 0 32
-262144 -1 -1 0 256;
#X obj 157 259 hsl 400 15 0 128000 0 0 empty empty Scrub -2 -8 0 12
-191407 -1 -1 0 1;
#X obj 3 4 cnv 10 400 10 empty empty empty 20 12 0 14 -233017 -66577
0;
#X obj 3 4 cnv 10 10 400 empty empty empty 20 12 0 14 -233017 -66577
0;
#N canvas 449 96 915 771 other-settings 0;
#X obj 44 66 hradio 15 1 0 5 empty empty empty 0 -8 0 10 -262144 -1
-1 0;
#X msg 44 86 window_function \$1;
#X msg 110 158 set another-sample-array;
#X msg 149 194 samplerate 48000;
#X text 298 157 Read from a different array;
#X msg 175 247 power_spectrum \$1;
#X obj 175 229 tgl 15 0 empty empty empty 17 7 0 10 -262144 -1 -1 0
1;
#X obj 44 725 outlet;
#X text 283 193 Specify your sample's sampling rate. (default: 44100)
;
#X text 316 247 Use power spectrum. (default: magnitude);
#X msg 398 570 separation 128;
#X obj 255 329 tgl 15 0 empty empty empty 17 7 0 10 -262144 -1 -1 0
1;
#X msg 255 347 normalize \$1;
#X text 536 618 Squared difference vs. Absolute value of difference.
;
#X msg 423 618 squared_diff \$1;
#X obj 423 598 tgl 15 0 empty empty empty 17 7 0 10 -262144 -1 -1 0
1;
#X text 42 29 Change windowing function. Rectangular (0) \, Blackman
(1) \, Cosine (2) \, Hamming (3) \, or Hann (4). (default: Blackman)
;
#X text 388 384 Construct a new filterbank with a specific spacing.
;
#X msg 288 384 filterbank 1;
#X msg 465 658 print;
#X obj 327 444 tgl 15 0 empty empty empty 17 7 0 10 -262144 -1 -1 0
1;
#X msg 327 464 spec_band_avg \$1;
#X obj 357 504 tgl 15 0 empty empty empty 17 7 0 10 -262144 -1 -1 0
1;
#X msg 357 524 filter_avg \$1;
#X text 515 660 Print current settings in the post window;
#X text 384 492 If using the triangular Bark spaced filters \, you
can either sum or average the energy in each filter (default: sum)
;
#X text 353 412 Rather than sum energy in the triangular Bark spaced
filters to get the amount of energy in each Bark band \, you can average
energy in the unfiltered bins (default: OFF);
#X text 525 564 Set separation in samples between analysis windows
(default: half of current window size);
#X text 176 116 Change internal window size setting;
#X msg 74 116 window 2000;
#X text 356 347 Normalize spectrum. (default: OFF);
#X obj 215 279 tgl 15 0 empty empty empty 17 7 0 10 -262144 -1 -1 0
1;
#X msg 215 297 log_spectrum \$1;
#X text 336 297 Use the natural logarithm of spectrum values. (default:
OFF);
#X connect 0 0 1 0;
#X connect 1 0 7 0;
#X connect 2 0 7 0;
#X connect 3 0 7 0;
#X connect 5 0 7 0;
#X connect 6 0 5 0;
#X connect 10 0 7 0;
#X connect 11 0 12 0;
#X connect 12 0 7 0;
#X connect 14 0 7 0;
#X connect 15 0 14 0;
#X connect 18 0 7 0;
#X connect 19 0 7 0;
#X connect 20 0 21 0;
#X connect 21 0 7 0;
#X connect 22 0 23 0;
#X connect 23 0 7 0;
#X connect 29 0 7 0;
#X connect 31 0 32 0;
#X connect 32 0 7 0;
#X restore 206 353 pd other-settings;
#N canvas 0 50 450 300 (subpatch) 0;
#X array \$0-waveform 1024 float 0;
#X coords 0 1 1023 -1 200 140 1 0 0;
#X restore 652 247 graph;
#N canvas 666 270 552 163 soundfile 0;
#X obj 50 83 soundfiler;
#X obj 185 100 table \$0-sample 130000;
#X msg 50 58 read -skip 120000 ./audio/testing.wav \$1-sample;
#X obj 50 14 loadbang;
#X obj 50 36 f \$0;
#X connect 2 0 0 0;
#X connect 3 0 4 0;
#X connect 4 0 2 0;
#X restore 652 397 pd soundfile;
#N canvas 722 238 369 330 waveform 0;
#X obj 46 61 inlet;
#X obj 46 82 t f f;
#X obj 46 284 outlet;
#X obj 131 131 + 1023;
#X msg 86 200 copy_range 0 \$3-sample \$1 \$2;
#X obj 86 164 pack f f \$0;
#X obj 86 241 tabletool \$0-waveform;
#X connect 0 0 1 0;
#X connect 1 0 2 0;
#X connect 1 0 5 0;
#X connect 1 1 3 0;
#X connect 3 0 5 1;
#X connect 4 0 6 0;
#X connect 5 0 4 0;
#X restore 154 279 pd waveform;
#N canvas 0 50 450 278 (subpatch) 0;
#X array \$0-band-diffs 50 float 0;
#X coords 0 10 49 -10 200 140 1 0 0;
#X restore 652 447 graph;
#X msg 154 308 analyze \$1 1024;
#X obj 723 85 barkSpecFlux~;
#X text 513 59 See the real-time version for more information on Bark
spectrum flux in general.;
#X msg 58 73 analyze 44100 2000;
#X text 310 513 Creation arguments are the name of the sample array
to read from \, filterbank spacing in Barks \, and separation in samples
between analysis windows., f 27;
#X text 76 102 Analyze a FORWARD window starting at sample 44100 that
is 2000 samples long (samples 44100 - 46099). The BACK analysis window
will start N samples earlier \, where N is set by the "separation"
argument. Flux is the sum of per-Bark-band energy differences between
these windows. The energy difference of each Bark band is reported
from the right outlet as a list. Passing a starting sample that isn't
at least N samples forward from the beginning of the array may produce
incorrect flux values.;
#X obj 58 553 barkSpecFlux \$0-sample 0.5 256;
#N canvas 607 488 441 264 plot-diffs 0;
#X obj 51 113 list prepend 0;
#X obj 51 62 t l l;
#X obj 173 93 list length;
#X obj 173 115 change;
#X obj 173 137 pack f \$0;
#X msg 173 159 \; \$2-band-diffs resize \$1 \;;
#X obj 51 135 s \$0-band-diffs;
#X obj 51 32 inlet;
#X connect 0 0 6 0;
#X connect 1 0 0 0;
#X connect 1 1 2 0;
#X connect 2 0 3 0;
#X connect 3 0 4 0;
#X connect 4 0 5 0;
#X connect 7 0 1 0;
#X restore 298 607 pd plot-diffs;
#N canvas 448 253 1043 663 chain_messages 0;
#X msg 563 139 chain_fftData <data>;
#X msg 643 319 chain_magSpec <data>;
#X obj 427 613 outlet;
#X obj 34 500 list prepend chain_fftData;
#X obj 34 518 list trim;
#X text 219 477 Prepend the "chain_fftData" message in front of the
analysis data \, then trim off the list selector to make it a message
to timbreID analysis objects., f 33;
#X text 186 171 [tID_fft~] outputs (N/2)+1 real values from the left
outlet \, and (N/2)+1 imaginary values from the right. The imaginary
values are appended to the real ones to form one long list (N+2 values
total) of complex frequency domain data., f 50;
#X msg 723 389 chain_barkSpec <data>;
#X text 559 25 The object in this help file accepts the chain_ messages
listed below \, which should be followed by the associated data as
a single list. In practice \, these messages are prepended to analysis
results via [list prepend] \, followed by a [list trim] to remove the
list selector. This is illustrated in the example at left.;
#X text 98 15 To minimize redundant calculations on the same window
of audio \, most of timbreID's non-real-time analysis objects have
various chain_ methods. For example \, because many types of analysis
start with an FFT \, it is more efficient to do a single FFT at the
start of an analysis chain \, and pass the results to other analysis
objects that require FFT data. chain_ methods make it possible to bypass
various steps of the analysis calculation if the data is already available.
Here \, note that the FFT data originated with a real-time analysis
object \, but non-real-time objects can be used for consequent chain_
calculations.;
#X text 168 328 Spectral flux is a special case \, because measurements
must be taken on two windows \, separated by some number of samples
or milliseconds. Here \, the analysis button is delayed by 5ms to produce
the FORWARD WINDOW data (i.e. \, the most recent data) \, while the
direct bang from the analysis button generates the BACK WINDOW data.
They are combined into a single list that is 4*(N/2+1) elements long
\, containing the FORWARD WINDOW real/imaginary data \, followed by
the BACK WINDOW real/imaginary data., f 49;
#X obj 34 159 adc~;
#X obj 34 243 tID_fft~;
#X obj 34 281 list append;
#X obj 114 173 bng 15 250 50 0 empty empty empty 17 7 0 10 -262144
-1 -1;
#X obj 34 332 list append;
#X obj 154 243 tID_fft~;
#X obj 154 281 list append;
#X text 720 118 fftData <data> should consist of (window/2)+1 real
values and (window/2)+1 imaginary values for the forward window \,
followed by (window/2)+1 real values and (window/2)+1 imaginary values
for the back window \, all packaged together as one long list., f
31;
#X text 793 272 magSpec <data> should consist of (window/2)+1 magnitudes
for the forward window \, followed by (window/2)+1 magnitudes for the
back window., f 25;
#X text 761 422 at the default Bark filterbank spacing of 0.5 \, barkSpec
<data> should consist of 50 Bark spectrum energy values for the forward
window \, followed by 50 Bark spectrum energy values for the back window.
The length of this list will change depending on filterbank spacing.
, f 30;
#X obj 64 203 delay 5;
#X connect 0 0 2 0;
#X connect 1 0 2 0;
#X connect 3 0 4 0;
#X connect 4 0 2 0;
#X connect 7 0 2 0;
#X connect 11 0 12 0;
#X connect 11 0 16 0;
#X connect 12 0 13 0;
#X connect 12 1 13 1;
#X connect 13 0 15 0;
#X connect 14 0 16 0;
#X connect 14 0 21 0;
#X connect 15 0 3 0;
#X connect 16 0 17 0;
#X connect 16 1 17 1;
#X connect 17 0 15 1;
#X connect 21 0 12 0;
#X restore 236 383 pd chain_messages;
#X msg 264 420 mode flux;
#X msg 284 460 mode decay;
#X msg 274 440 mode growth;
#X text 371 421 Change modes to report flux \, spectral growth only
\, or spectral decay only. This affects the output of both outlets
, f 34;
#X obj 721 684 declare -lib timbreID/timbreIDLib;
#X text 720 643 Updated for timbreIDLib version 0.9.0;
#X text 720 663 June 2021;
#X connect 1 0 7 0;
#X connect 4 0 15 0;
#X connect 7 0 9 0;
#X connect 9 0 15 0;
#X connect 12 0 15 0;
#X connect 15 0 0 0;
#X connect 15 1 16 0;
#X connect 17 0 15 0;
#X connect 18 0 15 0;
#X connect 19 0 15 0;
#X connect 20 0 15 0;
