#N canvas 191 96 960 589 10;
#X declare -lib timbreID/timbreIDLib;
#X obj 108 132 bng 15 250 50 0 empty empty empty 17 7 0 10 -262144
-1 -1;
#N canvas 0 50 450 300 (subpatch) 0;
#X array \$0-cepstrum-graph 513 float 0;
#X coords 0 0.5 512 -0.25 200 140 1 0 0;
#X restore 483 310 graph;
#X obj 137 171 tgl 15 0 empty empty empty 17 7 0 10 -262144 -1 -1 0
1;
#X obj 4 4 cnv 10 400 10 empty empty empty 20 12 0 14 -233017 -66577
0;
#X obj 4 4 cnv 10 10 400 empty empty empty 20 12 0 14 -233017 -66577
0;
#N canvas 407 179 816 479 other-settings 0;
#X obj 54 86 hradio 15 1 0 5 empty empty empty 0 -8 0 10 -262144 -1
-1 0;
#X msg 54 106 window_function \$1;
#X msg 113 176 power_spectrum \$1;
#X obj 113 158 tgl 15 0 empty empty empty 17 7 0 10 -262144 -1 -1 0
1;
#X obj 54 415 outlet;
#X text 254 176 Use power spectrum. (default: magnitude);
#X msg 305 379 print;
#X text 355 381 Print current settings in the post window;
#X text 52 49 Change windowing function. Rectangular (0) \, Blackman
(1) \, Cosine (2) \, Hamming (3) \, or Hann (4). (default: Blackman)
;
#X msg 251 327 overlap 2;
#X text 332 315 Inside a subpatch with re-blocking involving overlap
(e.g. \, [block~ 4096 2]) \, you'll need to change the overlap for
things to behave properly;
#X obj 153 208 tgl 15 0 empty empty empty 17 7 0 10 -262144 -1 -1 0
1;
#X msg 153 226 power_cepstrum \$1;
#X text 294 226 Report power cepstrum (default: magnitude);
#X obj 193 258 tgl 15 0 empty empty empty 17 7 0 10 -262144 -1 -1 0
1;
#X msg 193 276 spectrum_offset \$1;
#X text 334 269 Add 1 to the power or magnitude spectrum before the
cepstrum is computed.;
#X connect 0 0 1 0;
#X connect 1 0 4 0;
#X connect 2 0 4 0;
#X connect 3 0 2 0;
#X connect 6 0 4 0;
#X connect 9 0 4 0;
#X connect 11 0 12 0;
#X connect 12 0 4 0;
#X connect 14 0 15 0;
#X connect 15 0 4 0;
#X restore 217 300 pd other-settings;
#X obj 57 72 adc~;
#X text 52 507 Updated for timbreID version 0.7;
#X msg 173 243 window 2000;
#X text 280 237 Change analysis window size, f 17;
#X obj 648 536 timbreID;
#X text 161 170 Bang repeatedly to keep refreshing...;
#X text 481 471 This feature can be sent to the timbreID external in
order to identify timbres in real time. For more on using audio features
for classification \, see the timbreID helpfile:;
#X obj 57 387 cepstrum~ 1024;
#X text 180 382 Creation argument is window size in samples, f 23
;
#X text 105 115 Bang to output cepstrum as a list;
#N canvas 0 81 724 308 do-plotting 0;
#X obj 79 37 inlet;
#X obj 79 59 t b l l;
#X obj 130 173 list prepend 0;
#X obj 304 116 list length;
#X obj 304 138 change;
#X obj 304 160 pack f \$0;
#X msg 304 181 \; \$2-cepstrum-graph resize \$1 \;;
#X obj 130 194 s \$0-cepstrum-graph;
#X obj 79 253 tabletool \$0-cepstrum-graph;
#X msg 79 231 clip -0.25 0.5;
#X text 290 234 clip to graph bounds because first value in cepstrum
is often extremely low;
#X connect 0 0 1 0;
#X connect 1 0 9 0;
#X connect 1 1 2 0;
#X connect 1 2 3 0;
#X connect 2 0 7 0;
#X connect 3 0 4 0;
#X connect 4 0 5 0;
#X connect 5 0 6 0;
#X connect 9 0 8 0;
#X restore 57 432 pd do-plotting;
#X text 481 171 Audio buffering and windowing are taken care of by
the external \, so there is no need for tabreceive~ or block~. You
can set the window size with a creation argument \, or change it with
the "window" message. Window size is not required to be a power of
two. Cepstrum values are typically between 1 and -1 \, with the exception
of the first coefficient \, which is often much lower (here \, the
first value is clipped to -1 for convenience graphing).;
#X text 481 24 Real cepstrum is defined as the real portion of the
IFT of log magnitude spectrum. It is sometimes also defined as the
real part of the forward FT of log magnitude spectrum. This external
applies the former method \, and there is little difference between
the two. When cepstrum~ receives a bang \, it spits out (N/2)+1 cepstral
coefficients for the most recent analysis window as a list. The first
dozen or so coefficients from the cepstrum and its perceptually weighted
relatives mel-cepstrum and Bark-cepstrum are often used as compact
feature vectors to describe timbre.;
#X text 52 527 July 2017;
#X obj 137 190 metro 20;
#X obj 53 547 declare -lib timbreID/timbreIDLib;
#X connect 0 0 13 0;
#X connect 2 0 20 0;
#X connect 5 0 13 0;
#X connect 6 0 13 0;
#X connect 8 0 13 0;
#X connect 13 0 16 0;
#X connect 20 0 13 0;
