#N canvas 225 85 922 651 10;
#X declare -lib timbreID/timbreIDLib;
#X obj 50 310 bng 15 250 50 0 empty empty empty 17 7 0 10 -262144 -1
-1;
#N canvas 0 50 450 300 (subpatch) 0;
#X array \$0-waveform 1024 float 0;
#X coords 0 1 1023 -1 200 140 1 0 0;
#X restore 47 47 graph;
#X text 72 307 Bang to analyze the entire array.;
#N canvas 721 350 482 216 soundfile 0;
#X obj 50 103 soundfiler;
#X obj 50 24 loadbang;
#X obj 50 46 f \$0;
#X msg 50 78 read -resize ./audio/voice2.wav \$1-sample;
#X obj 185 120 table \$0-sample;
#X obj 50 125 - 1024;
#X obj 50 147 pack f \$0;
#X msg 50 169 \; \$2-scrub-bar-set range 0 \$1 \;;
#X connect 0 0 5 0;
#X connect 1 0 2 0;
#X connect 2 0 3 0;
#X connect 3 0 0 0;
#X connect 5 0 6 0;
#X connect 6 0 7 0;
#X restore 655 86 pd soundfile;
#X msg 107 455 analyze \$1 1024;
#N canvas 722 238 304 333 waveform 0;
#X obj 46 61 inlet;
#X obj 46 82 t f f;
#X obj 91 131 + 1023;
#X msg 46 200 copy_range 0 \$3-sample \$1 \$2;
#X obj 46 164 pack f f \$0;
#X obj 46 241 tabletool \$0-waveform;
#X connect 0 0 1 0;
#X connect 1 0 4 0;
#X connect 1 1 2 0;
#X connect 2 0 4 1;
#X connect 3 0 5 0;
#X connect 4 0 3 0;
#X restore 655 138 pd waveform;
#X obj 50 243 hsl 800 25 0 38051 0 0 \$0-scrub-bar \$0-scrub-bar-set
Scrub-bar -2 -8 0 12 -191407 -1 -1 0 1;
#X obj 3 3 cnv 10 400 10 empty empty empty 20 12 0 14 -233017 -66577
0;
#X obj 3 3 cnv 10 10 400 empty empty empty 20 12 0 14 -233017 -66577
0;
#N canvas 956 220 820 636 other-settings 0;
#X obj 44 56 hradio 15 1 0 5 empty empty empty 0 -8 0 10 -262144 -1
-1 4;
#X msg 44 76 window_function \$1;
#X msg 100 138 set another-sample-array;
#X msg 139 194 samplerate 48000;
#X text 288 137 Read from a different array;
#X msg 165 247 power_spectrum \$1;
#X obj 165 229 tgl 15 0 empty empty empty 17 7 0 10 -262144 -1 -1 0
1;
#X obj 44 585 outlet;
#X text 273 193 Specify your sample's sampling rate. (default: 44100)
;
#X msg 325 473 print;
#X text 42 19 Change windowing function. Rectangular (0) \, Blackman
(1) \, Cosine (2) \, Hamming (3) \, or Hann (4). (default: Blackman)
;
#X text 375 475 Print current settings in the post window;
#X obj 195 279 tgl 15 0 empty empty empty 17 7 0 10 -262144 -1 -1 0
1;
#X msg 195 297 power_cepstrum \$1;
#X obj 235 329 tgl 15 0 empty empty empty 17 7 0 10 -262144 -1 -1 0
1;
#X msg 235 347 spectrum_offset \$1;
#X msg 265 387 threshold 3;
#X text 372 382 Set threshold for detecting cepstral peak. In standard
deviations above the mean (default: 0);
#X text 435 421 Set the expected pitch range (MIDI) to determine where
to look for peaks in the cepstrum.;
#X msg 295 427 pitch_range 35 60;
#X text 306 247 Use power spectrum. (default: power);
#X text 336 297 Report power cepstrum (default: magnitude);
#X text 376 340 Add 1 to the power or magnitude spectrum before the
cepstrum is computed (default: ON);
#X connect 0 0 1 0;
#X connect 1 0 7 0;
#X connect 2 0 7 0;
#X connect 3 0 7 0;
#X connect 5 0 7 0;
#X connect 6 0 5 0;
#X connect 9 0 7 0;
#X connect 12 0 13 0;
#X connect 13 0 7 0;
#X connect 14 0 15 0;
#X connect 15 0 7 0;
#X connect 16 0 7 0;
#X connect 19 0 7 0;
#X restore 152 498 pd other-settings;
#X text 675 572 Updated for timbreID version 0.7;
#X obj 107 433 r \$0-scrub-bar;
#X obj 655 116 r \$0-scrub-bar;
#X text 245 436 Move through the soundfile with the slider above,
f 28;
#X text 675 592 July 2017;
#X floatatom 50 568 5 0 0 0 - - -;
#X obj 50 546 cepstrumPitch \$0-sample 43 64;
#X obj 598 438 cepstrumPitch~;
#X text 596 389 See the real-time version for more information on cepstrum
pitch tracking in general., f 33;
#X text 295 530 Creation arguments are the name of the sample array
to read from \, and the lower and upper bounds of the expected pitch
range to track in MIDI units., f 42;
#X text 48 613 Output value is pitch in MIDI units;
#X msg 94 379 analyze 24100 2000;
#X text 92 345 Analyze a window starting at sample 44100 that is 2000
samples long (samples 24100 - 26099).;
#X obj 677 612 declare -lib timbreID/timbreIDLib;
#X connect 0 0 16 0;
#X connect 4 0 16 0;
#X connect 9 0 16 0;
#X connect 11 0 4 0;
#X connect 12 0 5 0;
#X connect 16 0 15 0;
#X connect 21 0 16 0;
