#N canvas 155 119 897 706 10;
#X declare -lib timbreIDLib;
#X obj 50 310 bng 15 250 50 0 empty empty empty 17 7 0 10 -262144 -1
-1;
#N canvas 0 50 450 300 (subpatch) 0;
#X array \$0-waveform 4096 float 0;
#X coords 0 1 4095 -1 200 140 1 0 0;
#X restore 47 47 graph;
#N canvas 0 50 450 300 (subpatch) 0;
#X array \$0-chroma-graph 12 float 2;
#X coords 0 3000 12 0 200 140 1 0 0;
#X restore 313 47 graph;
#X text 72 307 Bang to analyze the entire array.;
#N canvas 666 270 482 216 soundfile 0;
#X obj 50 103 soundfiler;
#X obj 50 24 loadbang;
#X obj 185 120 table \$0-sample 130000;
#X obj 50 46 f \$0;
#X msg 50 78 read -skip 424191 ./audio/satie.wav \$1-sample;
#X connect 1 0 3 0;
#X connect 3 0 4 0;
#X connect 4 0 0 0;
#X restore 655 86 pd soundfile;
#N canvas 722 238 304 333 waveform 0;
#X obj 46 61 inlet;
#X obj 46 82 t f f;
#X msg 46 200 copy_range 0 \$3-sample \$1 \$2;
#X obj 46 164 pack f f \$0;
#X obj 46 241 tabletool \$0-waveform;
#X obj 91 131 + 4095;
#X connect 0 0 1 0;
#X connect 1 0 3 0;
#X connect 1 1 5 0;
#X connect 2 0 4 0;
#X connect 3 0 2 0;
#X connect 5 0 3 1;
#X restore 655 138 pd waveform;
#X obj 50 243 hsl 800 25 0 128000 0 0 \$0-scrub-bar empty Scrub-bar
-2 -8 0 12 -191407 -1 -1 0 1;
#X obj 3 3 cnv 10 400 10 empty empty empty 20 12 0 14 -233017 -66577
0;
#X obj 3 3 cnv 10 10 400 empty empty empty 20 12 0 14 -233017 -66577
0;
#N canvas 594 92 846 729 other-settings 0;
#X obj 44 56 hradio 15 1 0 5 empty empty empty 0 -8 0 10 -262144 -1
-1 4;
#X msg 44 76 window_function \$1;
#X obj 110 148 tgl 15 0 empty empty empty 17 7 0 10 -262144 -1 -1 0
1;
#X msg 110 166 normalize \$1;
#X msg 150 218 set another-sample-array;
#X msg 189 274 samplerate 48000;
#X text 338 217 Read from a different array;
#X msg 215 327 power_spectrum \$1;
#X obj 215 309 tgl 15 0 empty empty empty 17 7 0 10 -262144 -1 -1 0
1;
#X obj 44 685 outlet;
#X text 323 273 Specify your sample's sampling rate. (default: 44100)
;
#X msg 407 626 print;
#X text 42 19 Change windowing function. Rectangular (0) \, Blackman
(1) \, Cosine (2) \, Hamming (3) \, or Hann (4). (default: Blackman)
;
#X text 457 628 Print current settings in the post window;
#X text 176 106 Change internal window size setting;
#X msg 74 106 window 2000;
#X text 356 327 Use power spectrum. (default: ON);
#X msg 267 426 pitch_tolerance 0.5;
#X text 416 428 pitch tolerance in MIDI units;
#X text 216 166 Normalize pitch energy profile (default: OFF);
#X text 396 457 spectral energy threshold. energy below this thresh
will not be accumulated into pitch energy profiles;
#X msg 297 463 thresh 50;
#X msg 337 503 microtune -50;
#X text 436 497 Microtonal offset in cents for adapting to tuning systems
not centered on A-440, f 45;
#X text 476 577 Use semitone \, half-semitone \, or third-semitone
resolution for the pitch class profile output., f 49;
#X msg 377 543 symbol full;
#X msg 477 543 symbol half;
#X msg 577 543 symbol third;
#X msg 377 583 resolution \$1;
#X msg 237 386 freq_range 100 2000;
#X text 386 385 analysis frequency range in Hz;
#X connect 0 0 1 0;
#X connect 1 0 9 0;
#X connect 2 0 3 0;
#X connect 3 0 9 0;
#X connect 4 0 9 0;
#X connect 5 0 9 0;
#X connect 7 0 9 0;
#X connect 8 0 7 0;
#X connect 11 0 9 0;
#X connect 15 0 9 0;
#X connect 17 0 9 0;
#X connect 21 0 9 0;
#X connect 22 0 9 0;
#X connect 25 0 28 0;
#X connect 26 0 28 0;
#X connect 27 0 28 0;
#X connect 28 0 9 0;
#X connect 29 0 9 0;
#X restore 152 498 pd other-settings;
#X obj 107 433 r \$0-scrub-bar;
#X obj 655 116 r \$0-scrub-bar;
#X text 235 438 Move through the soundfile with the slider above,
f 28;
#X text 92 345 Analyze a window starting at sample 44100 that is 2000
samples long (samples 44100 - 46099).;
#N canvas 397 205 1043 508 chain_messages 0;
#X msg 563 139 chain_fftData <data>;
#X obj 427 463 outlet;
#X obj 34 159 adc~;
#X obj 34 251 list append;
#X obj 34 310 list prepend chain_fftData;
#X obj 34 328 list trim;
#X obj 64 183 bng 15 250 50 0 empty empty empty 17 7 0 10 -262144 -1
-1;
#X text 219 287 Prepend the "chain_fftData" message in front of the
analysis data \, then trim off the list selector to make it a message
to timbreID analysis objects., f 33;
#X text 142 192 [tID_fft~] outputs (N/2)+1 real values from the left
outlet \, and (N/2)+1 imaginary values from the right. The imaginary
values are appended to the real ones to form one long list (N+2 values
total) of complex frequency domain data., f 50;
#X text 718 138 fftData <data> should consist of (window/2)+1 real
values and (window/2)+1 imaginary values \, packaged together as one
long list., f 31;
#X text 559 25 The object in this help file accepts the chain_ messages
listed below \, which should be followed by the associated data as
a single list. In practice \, these messages are prepended to analysis
results via [list prepend] \, followed by a [list trim] to remove the
list selector. This is illustrated in the example at left.;
#X text 98 15 To minimize redundant calculations on the same window
of audio \, most of timbreID's non-real-time analysis objects have
various chain_ methods. For example \, because many types of analysis
start with an FFT \, it is more efficient to do a single FFT at the
start of an analysis chain \, and pass the results to other analysis
objects that require FFT data. chain_ methods make it possible to bypass
various steps of the analysis calculation if the data is already available.
Here \, note that the FFT data originated with a real-time analysis
object \, but non-real-time objects can be used for consequent chain_
calculations.;
#X obj 34 213 tID_fft~ 4096;
#X msg 643 229 chain_magSpec <data>;
#X text 791 222 magSpec <data> should consist of (window/2)+1 magnitudes
, f 25;
#X connect 0 0 1 0;
#X connect 2 0 12 0;
#X connect 3 0 4 0;
#X connect 4 0 5 0;
#X connect 5 0 1 0;
#X connect 6 0 12 0;
#X connect 12 0 3 0;
#X connect 12 1 3 1;
#X connect 13 0 1 0;
#X restore 182 528 pd chain_messages;
#X obj 637 647 declare -lib timbreIDLib;
#X obj 598 438 chroma~;
#X text 596 389 See the real-time version for more information on pitch
chroma in general., f 33;
#X text 635 626 June 2019;
#X msg 94 379 analyze 44100 2000;
#X msg 107 455 analyze \$1 4096;
#N canvas 948 307 726 541 get-most-present-pitch-class 0;
#X obj 37 37 inlet;
#X obj 103 312 list prepend 0;
#X obj 103 333 s \$0-chroma-graph;
#X msg 37 369 max;
#X obj 37 390 tabletool \$0-chroma-graph;
#X obj 266 447 list store;
#X obj 333 386 loadbang;
#X msg 266 421 get \$1 1;
#X msg 333 407 C C-sharp D D-sharp E F F-sharp G G-sharp A A-sharp
B;
#X obj 266 468 outlet;
#X obj 37 58 t b l l;
#X obj 153 102 list length;
#X obj 183 143 pack f \$0;
#X msg 183 164 \; \$2-chroma-graph resize \$1 \;;
#X obj 153 213 / 12;
#X obj 266 377 /;
#X obj 266 398 i;
#X text 201 211 In "half" or "third" mode \, there are 24 or 36 elements
in the HPCP \, so to locate the right pitch class symbol in the list
below \, we need to divide the index by 2 or 3;
#X connect 0 0 10 0;
#X connect 1 0 2 0;
#X connect 3 0 4 0;
#X connect 4 1 15 0;
#X connect 5 0 9 0;
#X connect 6 0 8 0;
#X connect 7 0 5 0;
#X connect 8 0 5 1;
#X connect 10 0 3 0;
#X connect 10 1 1 0;
#X connect 10 2 11 0;
#X connect 11 0 12 0;
#X connect 11 0 14 0;
#X connect 12 0 13 0;
#X connect 14 0 15 1;
#X connect 15 0 16 0;
#X connect 16 0 7 0;
#X restore 50 647 pd get-most-present-pitch-class;
#X symbolatom 50 668 10 0 0 0 - - -;
#X text 263 590 Creation arguments are: the name of the sample array
to analyze \, low and high frequency bounds in MIDI units \, and
a pitch tolerance in MIDI units., f 51;
#X obj 50 596 chroma \$0-sample 50 5000 0.1;
#X text 635 606 Updated for timbreIDLib version 0.8.0;
#X connect 0 0 24 0;
#X connect 9 0 24 0;
#X connect 10 0 20 0;
#X connect 11 0 5 0;
#X connect 14 0 24 0;
#X connect 19 0 24 0;
#X connect 20 0 24 0;
#X connect 21 0 22 0;
#X connect 24 0 21 0;
