#N canvas 267 82 958 589 10;
#X declare -lib timbreID/timbreIDLib;
#X obj 108 132 bng 15 250 50 0 empty empty empty 17 7 0 10 -262144
-1 -1;
#N canvas 0 50 450 300 (subpatch) 0;
#X array \$0-dct-graph 1024 float 0;
#X coords 0 1 1023 -1 200 140 1 0 0;
#X restore 483 310 graph;
#X obj 137 171 tgl 15 0 empty empty empty 17 7 0 10 -262144 -1 -1 0
1;
#X obj 4 4 cnv 10 400 10 empty empty empty 20 12 0 14 -233017 -66577
0;
#X obj 4 4 cnv 10 10 400 empty empty empty 20 12 0 14 -233017 -66577
0;
#N canvas 648 263 721 479 other-settings 0;
#X obj 54 86 hradio 15 1 0 5 empty empty empty 0 -8 0 10 -262144 -1
-1 1;
#X msg 54 106 window_function \$1;
#X obj 110 148 tgl 15 0 empty empty empty 17 7 0 10 -262144 -1 -1 0
1;
#X msg 110 166 normalize \$1;
#X obj 54 415 outlet;
#X text 216 166 Normalize spectrum (default: ON);
#X msg 215 279 print;
#X text 265 281 Print current settings in the post window;
#X text 52 49 Change windowing function. Rectangular (0) \, Blackman
(1) \, Cosine (2) \, Hamming (3) \, or Hann (4). (default: Blackman)
;
#X msg 161 227 overlap 2;
#X text 242 215 Inside a subpatch with re-blocking involving overlap
(e.g. \, [block~ 4096 2]) \, you'll need to change the overlap for
things to behave properly;
#X connect 0 0 1 0;
#X connect 1 0 4 0;
#X connect 2 0 3 0;
#X connect 3 0 4 0;
#X connect 6 0 4 0;
#X connect 9 0 4 0;
#X restore 217 300 pd other-settings;
#X obj 57 72 adc~;
#X text 52 507 Updated for timbreIDLib version 0.7;
#X msg 173 243 window 2000;
#X text 285 236 Change analysis window size, f 17;
#X obj 648 536 timbreID;
#X text 161 170 Bang repeatedly to keep refreshing...;
#X text 481 471 This feature can be sent to the timbreID external in
order to identify timbres in real time. For more on using audio features
for classification \, see the timbreID helpfile:;
#X obj 137 190 metro 100;
#X text 180 382 Creation argument is window size in samples, f 23
;
#N canvas 205 170 463 267 do-plotting 0;
#X obj 79 37 inlet;
#X obj 79 173 list prepend 0;
#X obj 203 116 list length;
#X obj 203 138 change;
#X obj 203 160 pack f \$0;
#X obj 79 59 t l l;
#X obj 79 194 s \$0-dct-graph;
#X msg 203 181 \; \$2-dct-graph resize \$1 \;;
#X connect 0 0 5 0;
#X connect 1 0 6 0;
#X connect 2 0 3 0;
#X connect 3 0 4 0;
#X connect 4 0 7 0;
#X connect 5 0 1 0;
#X connect 5 1 2 0;
#X restore 57 437 pd do-plotting;
#X obj 57 387 dct~ 1024;
#X text 105 115 Bang to output DCT results as a list;
#X text 52 527 July 2017;
#X text 481 191 Audio buffering and windowing are taken care of by
the external \, so there is no need for tabreceive~ or block~. You
can set the window size with a creation argument \, or change it with
the "window" message. Window size is not required to be a power of
two.;
#X text 481 54 The discrete cosine transform (DCT) multiplies an incoming
window of audio against cosine basis functions. Unlike the Fourier
transform \, it outputs N purely real numbers \, so the length of the
DCT list will be the same as the specified window size \, N. [dct~]'s
output is normalized to be between -1 and 1 by default. timbreID 0.7
uses FFTW's FFTW_REDFT10 in a real-to-real 1-dimensional plan. This
is the same DCT-II algorithm used in previous timbreID releases \,
just more efficient.;
#X obj 53 548 declare -lib timbreID/timbreIDLib;
#X connect 0 0 16 0;
#X connect 2 0 13 0;
#X connect 5 0 16 0;
#X connect 6 0 16 0;
#X connect 8 0 16 0;
#X connect 13 0 16 0;
#X connect 16 0 15 0;
