#N canvas 162 104 924 642 10;
#X declare -lib timbreID/timbreIDLib;
#X obj 60 65 adc~;
#N canvas 0 22 450 300 (subpatch) 0;
#X array \$0-fdelta-graph 3 float 2;
#X coords 0 1.1 3 -1.1 200 140 1 0 0;
#X restore 422 231 graph;
#X text 207 577 Also see:;
#X msg 289 414 length 7;
#X obj 3 3 cnv 10 400 10 empty empty empty 20 12 0 14 -233017 -66577
0;
#X obj 3 3 cnv 10 10 400 empty empty empty 20 12 0 14 -233017 -66577
0;
#X msg 309 434 print;
#X obj 655 597 declare -lib timbreID/timbreIDLib;
#X obj 279 597 binWrangler;
#X obj 60 186 bfcc~;
#X msg 139 354 mode \$1;
#N canvas 0 22 450 278 (subpatch) 0;
#X array \$0-current-graph 3 float 2;
#X coords 0 1.1 3 -1.1 200 140 1 0 0;
#X restore 422 61 graph;
#X obj 279 557 featureAccum;
#X obj 279 577 featureNorm;
#N canvas 414 281 450 300 plot-current 0;
#X obj 37 37 inlet;
#X obj 37 194 list prepend 0;
#X obj 160 115 list length;
#X obj 160 136 change;
#X obj 160 157 pack f \$0;
#X obj 37 77 t l l;
#X msg 160 179 \; \$2-current-graph resize \$1 \;;
#X obj 37 217 s \$0-current-graph;
#X connect 0 0 5 0;
#X connect 1 0 7 0;
#X connect 2 0 3 0;
#X connect 3 0 4 0;
#X connect 4 0 6 0;
#X connect 5 0 1 0;
#X connect 5 1 2 0;
#X restore 80 238 pd plot-current;
#X obj 210 186 bfcc~;
#N canvas 414 281 450 300 plot-previous 0;
#X obj 37 37 inlet;
#X obj 37 194 list prepend 0;
#X obj 160 115 list length;
#X obj 160 136 change;
#X obj 160 157 pack f \$0;
#X obj 37 77 t l l;
#X obj 37 217 s \$0-previous-graph;
#X msg 160 179 \; \$2-previous-graph resize \$1 \;;
#X connect 0 0 5 0;
#X connect 1 0 6 0;
#X connect 2 0 3 0;
#X connect 3 0 4 0;
#X connect 4 0 7 0;
#X connect 5 0 1 0;
#X connect 5 1 2 0;
#X restore 230 238 pd plot-previous;
#N canvas 0 22 450 278 (subpatch) 0;
#X array \$0-previous-graph 3 float 2;
#X coords 0 1.1 3 -1.1 200 140 1 0 0;
#X restore 662 61 graph;
#N canvas 648 548 450 300 plot-delta 0;
#X obj 37 37 inlet;
#X obj 37 194 list prepend 0;
#X obj 160 115 list length;
#X obj 160 136 change;
#X obj 160 157 pack f \$0;
#X obj 37 77 t l l;
#X msg 160 179 \; \$2-fdelta-graph resize \$1 \;;
#X obj 37 217 s \$0-fdelta-graph;
#X connect 0 0 5 0;
#X connect 1 0 7 0;
#X connect 2 0 3 0;
#X connect 3 0 4 0;
#X connect 4 0 6 0;
#X connect 5 0 1 0;
#X connect 5 1 2 0;
#X restore 60 531 pd plot-delta;
#X msg 139 294 diff;
#X msg 179 294 abs;
#X msg 219 294 squared;
#X obj 139 325 symbol;
#X obj 210 124 delwrite~ \$0-del 100;
#X obj 210 144 delread~ \$0-del 100;
#X obj 148 59 bng 15 250 50 0 empty empty empty 17 7 0 10 -262144 -1
-1;
#X obj 148 79 t b b;
#X text 222 38 Analyze the most recent frame of audio and one from
100ms earlier to see the BFCC delta between the two moments in time.
, f 25;
#X obj 210 207 list split 3;
#X obj 60 207 list split 3;
#X obj 229 355 symbol;
#X msg 229 384 direction \$1;
#X msg 229 324 pos;
#X msg 269 324 neg;
#X msg 309 324 both;
#X text 420 396 [featureDelta] calculates the difference between each
attribute in pairs of feature lists sent to its hot and cold inlets.
Incoming features must be of a common length N \, specified at creation
time \, or with the "length" message. The "direction" message allows
you to get either positive-only \, negative-only \, or all delta values.
If "direction" is positive- or negative-only \, other values are reported
as zero., f 73;
#X obj 60 480 featureDelta 3 diff both;
#X text 654 555 Updated for timbreID version 0.8.2;
#X text 654 575 January 2020;
#X text 420 474 Creation arguments are the length of the feature \,
a symbol indicating the desired mode ("diff" \, "abs" \, or "squared"
for straight difference \, absolute value of difference \, or squared
difference) \, and a symbol indicating the desired direction ("pos"
\, "neg" \, or "both" \, to report positive difference \, negative
difference \, or both positive and negative difference)., f 73;
#X connect 0 0 9 0;
#X connect 0 0 23 0;
#X connect 3 0 36 0;
#X connect 6 0 36 0;
#X connect 9 0 29 0;
#X connect 10 0 36 0;
#X connect 15 0 28 0;
#X connect 19 0 22 0;
#X connect 20 0 22 0;
#X connect 21 0 22 0;
#X connect 22 0 10 0;
#X connect 24 0 15 0;
#X connect 25 0 26 0;
#X connect 26 0 9 0;
#X connect 26 1 15 0;
#X connect 28 0 16 0;
#X connect 28 0 36 1;
#X connect 29 0 14 0;
#X connect 29 0 36 0;
#X connect 30 0 31 0;
#X connect 31 0 36 0;
#X connect 32 0 30 0;
#X connect 33 0 30 0;
#X connect 34 0 30 0;
#X connect 36 0 18 0;
