#N canvas 203 96 978 604 10;
#X declare -lib timbreIDLib;
#X obj 59 74 bng 15 250 50 0 empty empty empty 17 7 0 10 #fcfcfc #000000
#000000;
#X text 80 74 Bang to analyze the entire array.;
#X obj 59 522 nbx 10 32 -1e+37 1e+37 0 0 empty empty empty 0 -8 0 32
#fcfcfc #000000 #000000 0 256;
#X msg 155 291 analyze \$1 1024;
#X obj 158 249 hsl 400 15 0 61055 0 0 empty empty Scrub -2 -8 0 12
#b8b8b8 #000000 #000000 0 1;
#X obj 4 4 cnv 10 400 10 empty empty empty 20 12 0 14 #e0e0e0 #404040
0;
#X obj 4 4 cnv 10 10 400 empty empty empty 20 12 0 14 #e0e0e0 #404040
0;
#N canvas 714 176 641 296 other-settings 0;
#X msg 54 48 set another-sample-array;
#X text 242 47 Read from a different array;
#X obj 54 235 outlet;
#X msg 134 168 print;
#X obj 94 88 tgl 15 0 empty empty empty 17 7 0 10 #fcfcfc #000000 #000000
0 1;
#X msg 94 108 normalize \$1;
#X text 196 103 Turn normalization on or off. With normalization on
\, values will fall between 0 and 1 (default: ON);
#X connect 0 0 2 0;
#X connect 3 0 2 0;
#X connect 4 0 5 0;
#X connect 5 0 2 0;
#X restore 207 343 pd other-settings;
#N canvas 0 50 450 300 (subpatch) 0;
#X array \$0-waveform 1024 float 0;
#X coords 0 1 1023 -1 200 140 1 0 0;
#X restore 653 247 graph;
#N canvas 666 270 552 203 soundfile 0;
#X obj 50 93 soundfiler;
#X obj 50 24 loadbang;
#X obj 50 46 f \$0;
#X msg 50 68 read -resize ../doc/sound/voice.wav \$1-sample;
#X obj 185 100 table \$0-sample;
#X obj 30 46 bng 15 250 50 0 empty empty empty 17 7 0 10 #fcfcfc #000000
#000000;
#X connect 1 0 2 0;
#X connect 2 0 3 0;
#X connect 3 0 0 0;
#X connect 5 0 2 0;
#X restore 653 397 pd soundfile;
#N canvas 722 238 369 330 waveform 0;
#X obj 46 61 inlet;
#X obj 46 82 t f f;
#X obj 46 284 outlet;
#X obj 131 131 + 1023;
#X obj 86 241 tabletool \$0-waveform;
#X msg 86 200 copy_range 0 \$3-sample \$1 \$2;
#X obj 86 164 pack f f \$0;
#X connect 0 0 1 0;
#X connect 1 0 2 0;
#X connect 1 0 6 0;
#X connect 1 1 3 0;
#X connect 3 0 6 1;
#X connect 5 0 4 0;
#X connect 6 0 5 0;
#X restore 155 269 pd waveform;
#X text 107 143 Analyze a window starting at sample 44100 that is 2000
samples long (samples 44100 - 46099), f 48;
#X msg 98 123 analyze 44100 2000;
#X obj 703 565 declare -lib timbreIDLib;
#X text 702 520 Updated for timbreIDLib version 0.9.0;
#X text 702 540 June 2022;
#X obj 59 483 harmonicRatio \$0-sample;
#X obj 704 85 harmonicRatio~;
#X text 514 59 See the real-time version for more information on harmonic
ratio in general.;
#X text 259 477 Creation argument is the name of the sample array to
analyze, f 33;
#X connect 0 0 16 0;
#X connect 3 0 16 0;
#X connect 4 0 10 0;
#X connect 7 0 16 0;
#X connect 10 0 3 0;
#X connect 12 0 16 0;
#X connect 16 0 2 0;
