#N canvas 228 104 939 526 10;
#X declare -lib timbreID/timbreIDLib;
#X obj 108 132 bng 15 250 50 0 empty empty empty 17 7 0 10 -262144
-1 -1;
#X obj 137 171 tgl 15 0 empty empty empty 17 7 0 10 -262144 -1 -1 0
1;
#X obj 4 4 cnv 10 400 10 empty empty empty 20 12 0 14 -233017 -66577
0;
#X obj 4 4 cnv 10 10 400 empty empty empty 20 12 0 14 -233017 -66577
0;
#N canvas 614 256 581 289 other-settings 0;
#X obj 55 210 outlet;
#X msg 109 129 print;
#X text 159 131 Print current settings in the post window;
#X msg 55 77 overlap 2;
#X text 136 65 Inside a subpatch with re-blocking involving overlap
(e.g. \, [block~ 4096 2]) \, you'll need to change the overlap for
things to behave properly;
#X connect 1 0 0 0;
#X connect 3 0 0 0;
#X restore 217 300 pd other-settings;
#X obj 57 72 adc~;
#X text 670 451 Updated for timbreID version 0.7;
#X msg 173 243 window 2000;
#X text 270 236 Change analysis window size, f 17;
#X obj 648 266 timbreID;
#X text 161 170 Bang repeatedly to keep refreshing...;
#X text 481 201 This feature can be sent to the timbreID external in
order to identify timbres in real time. For more on using audio features
for classification \, see the timbreID helpfile:;
#X obj 137 190 metro 100;
#X text 200 382 Creation argument is window size in samples, f 23
;
#X text 670 471 July 2017;
#X obj 57 387 maxSample~ 1024;
#X floatatom 57 449 10 0 0 0 - - -;
#X floatatom 167 419 10 0 0 0 - - -;
#X text 105 115 Bang to output maximum sample value and index;
#X text 481 54 [maxSample~] reports the value and index of the largest
sample value in the most recent N-sample window of audio.;
#X text 481 111 Audio buffering is taken care of by the external \,
so there is no need for [block~]. You can set the window size with
a creation argument \, or change it with the "window" message. Window
size is not required to be a power of two.;
#X obj 671 492 declare -lib timbreID/timbreIDLib;
#X connect 0 0 15 0;
#X connect 1 0 12 0;
#X connect 4 0 15 0;
#X connect 5 0 15 0;
#X connect 7 0 15 0;
#X connect 12 0 15 0;
#X connect 15 0 16 0;
#X connect 15 1 17 0;
