#N canvas 264 240 893 623 10;
#X declare -lib timbreID/timbreIDLib;
#X obj 119 92 bng 15 250 50 0 empty empty empty 17 7 0 10 -262144 -1
-1;
#X floatatom 70 414 10 0 0 0 - - -;
#X text 173 215 Change window size.;
#X obj 4 4 cnv 10 400 10 empty empty empty 20 12 0 14 -233017 -66577
0;
#X obj 4 4 cnv 10 10 400 empty empty empty 20 12 0 14 -233017 -66577
0;
#N canvas 676 230 576 318 other-settings 0;
#X obj 54 225 outlet;
#X msg 165 135 print;
#X msg 54 68 overlap 2;
#X text 135 56 Inside a subpatch with re-blocking involving overlap
(e.g. \, [block~ 4096 2]) \, you'll need to change the overlap for
things to behave properly;
#X connect 1 0 0 0;
#X connect 2 0 0 0;
#X restore 221 289 pd other-settings;
#X text 616 536 Updated for timbreIDLib version 0.7;
#X obj 592 320 timbreID;
#X text 425 255 This feature can be sent to the timbreID external in
order to identify timbres in real time. For more on using audio features
for classification \, see the timbreID helpfile:;
#X text 240 361 Creation argument is window size in samples;
#X msg 175 233 window 2000;
#X floatatom 220 414 10 0 0 0 - - -;
#X text 616 556 July 2017;
#X obj 70 41 adc~;
#X obj 159 142 tgl 15 0 empty empty empty 17 7 0 10 -262144 -1 -1 0
1;
#X floatatom 70 455 10 0 0 0 - - -;
#X obj 70 433 rmstodb;
#X obj 70 475 > 60;
#X obj 70 497 change;
#X obj 70 519 select 1;
#X obj 70 549 bng 15 250 50 0 empty empty empty 17 7 0 10 -262144 -1
-1;
#X obj 159 162 metro 100;
#X obj 70 361 maxSampleDelta~ 1024;
#X text 116 54 Bang to output maximum sample delta magnitude of most
recent N sample window, f 40;
#X text 216 469 Outlet 1: maximum sample delta magnitude value;
#X text 216 489 Outlet 2: index of maximum sample delta magnitude relative
to the analysis window;
#X text 425 54 [maxSampleDelta~] takes the absolute value of the difference
between all neighboring pairs of samples in a window of audio \, then
reports the value and location of the highest difference. This is useful
for finding sudden discontinuities in a waveform. Here \, it's used
as a crude percussive onset detector by looking for delta values above
a threshold in dB.;
#X text 425 165 Audio buffering is taken care of by the external \,
so there is no need for [block~]. You can set the window size with
a creation argument \, or change it with the "window" message. Window
size is not required to be a power of two.;
#X obj 617 577 declare -lib timbreID/timbreIDLib;
#X connect 0 0 22 0;
#X connect 1 0 16 0;
#X connect 5 0 22 0;
#X connect 10 0 22 0;
#X connect 13 0 22 0;
#X connect 14 0 21 0;
#X connect 15 0 17 0;
#X connect 16 0 15 0;
#X connect 17 0 18 0;
#X connect 18 0 19 0;
#X connect 19 0 20 0;
#X connect 21 0 22 0;
#X connect 22 0 1 0;
#X connect 22 1 11 0;
