#N canvas 222 104 938 528 10;
#X declare -lib timbreIDLib;
#X obj 108 132 bng 15 250 50 0 empty empty empty 17 7 0 10 -262144
-1 -1;
#X obj 137 171 tgl 15 0 empty empty empty 17 7 0 10 -262144 -1 -1 0
1;
#X obj 4 4 cnv 10 400 10 empty empty empty 20 12 0 14 -233017 -66577
0;
#X obj 4 4 cnv 10 10 400 empty empty empty 20 12 0 14 -233017 -66577
0;
#N canvas 884 207 599 301 other-settings 0;
#X obj 54 205 outlet;
#X msg 108 119 print;
#X text 158 121 Print current settings in the post window;
#X msg 54 67 overlap 2;
#X text 135 55 Inside a subpatch with re-blocking involving overlap
(e.g. \, [block~ 4096 2]) \, you'll need to change the overlap for
things to behave properly;
#X connect 1 0 0 0;
#X connect 3 0 0 0;
#X restore 217 300 pd other-settings;
#X obj 57 72 adc~;
#X msg 173 243 window 2000;
#X text 275 237 Change analysis window size, f 16;
#X obj 648 296 timbreID;
#X text 161 170 Bang repeatedly to keep refreshing...;
#X text 481 236 This feature can be sent to the timbreID external in
order to identify timbres in real time. For more on using audio features
for classification \, see the timbreID helpfile:;
#X obj 137 190 metro 100;
#X text 180 382 Creation argument is window size in samples, f 23
;
#X floatatom 57 449 10 0 0 0 - - -;
#X floatatom 167 419 10 0 0 0 - - -;
#X obj 57 387 peakSample~ 1024;
#X text 481 152 Audio buffering and windowing are taken care of by
the external \, so there is no need for tabreceive~ or block~. You
can set the window size with a creation argument \, or change it with
the "window" message. Window size is not required to be a power of
two.;
#X text 105 115 Bang to output peak sample value and location;
#X obj 663 489 declare -lib timbreIDLib;
#X text 662 467 June 2022;
#X text 662 447 Updated for timbreIDLib version 0.9.0;
#X text 481 74 [peakSample~] reports the value and index of the sample
with the largest magnitude in the most recent N-sample window of audio.
Note that this is not peak amplitude \, as the resulting sample value
will sometimes be negative. For peak amplitude \, use [abs] on the
output of the first outlet.;
#X connect 0 0 15 0;
#X connect 1 0 11 0;
#X connect 4 0 15 0;
#X connect 5 0 15 0;
#X connect 6 0 15 0;
#X connect 11 0 15 0;
#X connect 15 0 13 0;
#X connect 15 1 14 0;
