#N canvas 208 81 948 568 10;
#X declare -lib timbreIDLib;
#X obj 133 147 bng 15 250 50 0 empty empty empty 17 7 0 10 -262144
-1 -1;
#X floatatom 55 503 10 0 0 0 - - -;
#X obj 55 47 noise~;
#X obj 3 3 cnv 10 400 10 empty empty empty 20 12 0 14 -233017 -66577
0;
#X obj 3 3 cnv 10 10 400 empty empty empty 20 12 0 14 -233017 -66577
0;
#N canvas 638 101 716 488 other-settings 0;
#X obj 54 86 hradio 15 1 0 5 empty empty empty 0 -8 0 10 -262144 -1
-1 3;
#X msg 54 106 window_function \$1;
#X msg 145 187 power_spectrum \$1;
#X obj 145 169 tgl 15 0 empty empty empty 17 7 0 10 -262144 -1 -1 0
1;
#X obj 54 415 outlet;
#X text 286 187 Use power spectrum. (default: magnitude);
#X msg 229 318 print;
#X text 52 49 Change windowing function. Rectangular (0) \, Blackman
(1) \, Cosine (2) \, Hamming (3) \, or Hann (4). (default: Blackman)
;
#X msg 181 249 overlap 2;
#X text 262 237 Inside a subpatch with re-blocking involving overlap
(e.g. \, [block~ 4096 2]) \, you'll need to change the overlap for
things to behave properly;
#X connect 0 0 1 0;
#X connect 1 0 4 0;
#X connect 2 0 4 0;
#X connect 3 0 2 0;
#X connect 6 0 4 0;
#X connect 8 0 4 0;
#X restore 268 376 pd other-settings;
#X text 657 490 Updated for timbreIDLib version 0.7;
#X obj 651 358 timbreID;
#X text 484 293 This feature can be sent to the timbreID external in
order to identify timbres in real time. For more on using audio features
for classification \, see the timbreID helpfile:;
#X text 484 209 Audio buffering and windowing are taken care of by
the external \, so there is no need for tabreceive~ or block~. You
can set the window size with a creation argument \, or change it with
the "window" message. Window size is not required to be a power of
two.;
#X msg 204 254 window 2000;
#X text 232 303 Set energy concentration target;
#X msg 233 321 concentration 0.7;
#X obj 55 78 lop~ 1000;
#X obj 55 100 lop~ 1000;
#X text 232 444 Creation arguments are window size in samples \, and
an energy concentration target between 0 and 1, f 47;
#X text 130 129 Bang to output rolloff frequency;
#X text 202 236 Change window size;
#X obj 171 177 tgl 15 0 empty empty empty 17 7 0 10 -262144 -1 -1 0
1;
#X obj 171 197 metro 100;
#X text 197 176 Output continuously;
#X obj 142 53 hsl 128 15 100 15000 1 0 empty empty empty -2 -8 0 10
-262144 -1 -1 0 1;
#X floatatom 139 73 10 0 0 0 - - -;
#X text 484 33 Spectral Rolloff is the frequency below which a certain
amount of total spectral energy is concentrated. The default concentration
is 0.85 \, but you can change this with the concentration message below.
Keep in mind that roll-off reports the frequency associated with the
spectral bin in question. Bin frequency resolution depends on window
size (N) and sampling rate (R) \, and all bin frequencies will be multiples
of R/N. Move the cutoff frequency for the low pass filter at left \,
and watch the rolloff value change accordingly. With the settings used
here \, 65% of the spectral energy for the low pass filtered noise
is below the reported bin frequency.;
#X text 657 510 July 2017;
#X obj 55 457 specRolloff~ 1024 0.65;
#X obj 658 535 declare -lib timbreIDLib;
#X connect 0 0 25 0;
#X connect 2 0 13 0;
#X connect 5 0 25 0;
#X connect 10 0 25 0;
#X connect 12 0 25 0;
#X connect 13 0 14 0;
#X connect 14 0 25 0;
#X connect 18 0 19 0;
#X connect 19 0 25 0;
#X connect 21 0 22 0;
#X connect 22 0 13 1;
#X connect 22 0 14 1;
#X connect 25 0 1 0;
