#N canvas 280 81 882 483 10;
#X declare -lib timbreID/timbreIDLib;
#X obj 109 172 bng 15 250 50 0 empty empty empty 17 7 0 10 -262144
-1 -1;
#X floatatom 60 424 10 0 0 0 - - -;
#X text 123 225 Change window size.;
#X obj 4 4 cnv 10 400 10 empty empty empty 20 12 0 14 -233017 -66577
0;
#X obj 4 4 cnv 10 10 400 empty empty empty 20 12 0 14 -233017 -66577
0;
#N canvas 676 230 638 497 other-settings 0;
#X obj 54 86 hradio 15 1 0 5 empty empty empty 0 -8 0 10 -262144 -1
-1 0;
#X msg 54 106 window_function \$1;
#X msg 175 247 power_spectrum \$1;
#X obj 175 229 tgl 15 0 empty empty empty 17 7 0 10 -262144 -1 -1 0
1;
#X obj 54 415 outlet;
#X text 316 247 Use power spectrum. (default: magnitude);
#X msg 215 305 print;
#X msg 104 168 overlap 2;
#X text 185 156 Inside a subpatch with re-blocking involving overlap
(e.g. \, [block~ 4096 2]) \, you'll need to change the overlap for
things to behave properly;
#X text 52 49 Change windowing function. Rectangular (0) \, Blackman
(1) \, Cosine (2) \, Hamming (3) \, or Hann (4). (default: Blackman)
;
#X connect 0 0 1 0;
#X connect 1 0 4 0;
#X connect 2 0 4 0;
#X connect 3 0 2 0;
#X connect 6 0 4 0;
#X connect 7 0 4 0;
#X restore 171 299 pd other-settings;
#X text 616 406 Updated for timbreIDLib version 0.7;
#X obj 592 325 timbreID;
#X text 425 260 This feature can be sent to the timbreID external in
order to identify timbres in real time. For more on using audio features
for classification \, see the timbreID helpfile:;
#X text 425 170 Audio buffering and windowing are taken care of by
the external \, so there is no need for tabreceive~ or block~. You
can set the window size with a creation argument \, or change it with
the "window" message. Window size is not required to be a power of
two.;
#X text 200 371 Creation argument is window size in samples;
#X msg 125 243 window 2000;
#X obj 112 51 osc~ 440;
#X obj 60 82 *~;
#X obj 89 82 tgl 15 0 empty empty empty 17 7 0 10 -262144 -1 -1 0 1
;
#X obj 112 82 *~;
#X obj 141 82 tgl 15 0 empty empty empty 17 7 0 10 -262144 -1 -1 0
1;
#X obj 60 51 noise~;
#X obj 60 134 +~;
#X obj 60 371 specFlatness~ 1024;
#X text 106 154 Bang to output flatness;
#X text 616 426 July 2017;
#X text 425 57 Spectral Flatness is the ratio of the geometric mean
of magnitude spectrum to the arithmetic mean of magnitude spectrum.
A very flat spectrum with equal energy across all frequency bands (e.g.
\, that of white noise) should have a high flatness value \, where
1 is perfect flatness. The flatness of noise~ is about 0.85 \, while
the flatness of a sinusoid is basically zero.;
#X obj 617 449 declare -lib timbreID/timbreIDLib;
#X connect 0 0 19 0;
#X connect 5 0 19 0;
#X connect 11 0 19 0;
#X connect 12 0 15 0;
#X connect 13 0 18 0;
#X connect 14 0 13 1;
#X connect 15 0 18 1;
#X connect 16 0 15 1;
#X connect 17 0 13 0;
#X connect 18 0 19 0;
#X connect 19 0 1 0;
