#N canvas 202 178 1047 716 10;
#X declare -lib timbreID/timbreIDLib;
#X floatatom 50 574 10 0 0 0 - - -;
#X obj 4 4 cnv 10 400 10 empty empty empty 20 12 0 14 -233017 -66577
0;
#X obj 4 4 cnv 10 10 400 empty empty empty 20 12 0 14 -233017 -66577
0;
#N canvas 515 140 899 706 other-settings 0;
#X obj 54 86 hradio 15 1 0 5 empty empty empty 0 -8 0 10 -262144 -1
-1 0;
#X msg 54 106 window_function \$1;
#X msg 144 246 power_spectrum \$1;
#X obj 144 228 tgl 15 0 empty empty empty 17 7 0 10 -262144 -1 -1 0
1;
#X obj 54 633 outlet;
#X text 275 246 Use power spectrum. (default: magnitude);
#X msg 114 186 overlap 2;
#X text 195 175 Inside a subpatch with re-blocking involving overlap
(e.g. \, [block~ 4096 2]) \, you'll need to change the overlap for
things to behave properly;
#X text 52 49 Change windowing function. Rectangular (0) \, Blackman
(1) \, Cosine (2) \, Hamming (3) \, or Hann (4). (default: Blackman)
;
#X text 182 146 Change window size.;
#X msg 84 146 window 2000;
#X msg 345 527 print;
#X text 395 529 Print current settings in the post window;
#X obj 315 447 tgl 15 0 empty empty empty 17 7 0 10 -262144 -1 -1 0
1;
#X msg 315 467 input_fund \$1;
#X msg 195 287 peak_thresh 10;
#X msg 225 327 max_peaks 12;
#X msg 255 367 min_fund 100;
#X msg 285 407 max_fund 2000;
#X text 316 280 Threshold for detecting spectral peaks in percent relative
to the maximum peak amplitude. (default: 5%);
#X text 331 327 Maximum number of peaks to consider. (default: 24)
;
#X text 361 367 Minimum allowed fundamental frequency. (default: 30)
;
#X text 401 407 Maximum allowed fundamental frequency. (default: 4000)
;
#X text 431 447 Flag to use fundamental frequency data supplied to
the right inlet (by using the pitch output of sigmund~ \, for instance).
When off \, the first significant spectral peak is assumed to be the
fundamental. (default: OFF);
#X connect 0 0 1 0;
#X connect 1 0 4 0;
#X connect 2 0 4 0;
#X connect 3 0 2 0;
#X connect 6 0 4 0;
#X connect 10 0 4 0;
#X connect 11 0 4 0;
#X connect 13 0 14 0;
#X connect 14 0 4 0;
#X connect 15 0 4 0;
#X connect 16 0 4 0;
#X connect 17 0 4 0;
#X connect 18 0 4 0;
#X restore 350 423 pd other-settings;
#X text 786 639 Updated for timbreIDLib version 0.7;
#X obj 742 532 timbreID;
#X text 595 471 This feature can be sent to the timbreID external in
order to identify timbres in real time. For more on using audio features
for classification \, see the timbreID helpfile:;
#X text 595 384 Audio buffering and windowing are taken care of by
the external \, so there is no need for tabreceive~ or block~. You
can set the window size with a creation argument \, or change it with
the "window" message. Window size is not required to be a power of
two.;
#X text 200 521 Creation argument is window size in samples;
#X text 786 659 July 2017;
#X obj 50 191 *~;
#X obj 80 191 tgl 15 0 empty empty empty 17 7 0 10 -262144 -1 -1 0
1;
#X floatatom 200 574 10 0 0 0 - - -;
#N canvas 0 50 450 300 (subpatch) 0;
#X array \$0-magSpec-graph 256 float 0;
#X coords 0 0.15 255 0 200 140 1 0 0;
#X restore 334 65 graph;
#X obj 50 159 tabosc4~ \$0-saw;
#N canvas 443 205 603 347 wavetables 0;
#X obj 81 46 table \$0-saw;
#X obj 227 33 loadbang;
#X obj 227 55 f \$0;
#X floatatom 336 192 5 0 0 0 - - -;
#X obj 336 211 t b f;
#X obj 336 233 f 1;
#X obj 336 255 /;
#X obj 336 277 print;
#X msg 227 78 \; \$1-saw sinesum 512 1 0.5 0.333333 0.25 0.2 0.166666
0.142857 0.125 \; \$1-saw normalize \;;
#X obj 189 51 bng 15 250 50 0 empty empty empty 17 7 0 10 -262144 -1
-1;
#X connect 1 0 2 0;
#X connect 2 0 8 0;
#X connect 3 0 4 0;
#X connect 4 0 5 0;
#X connect 4 1 6 1;
#X connect 5 0 6 0;
#X connect 6 0 7 0;
#X connect 9 0 2 0;
#X restore 334 208 pd wavetables;
#X text 197 280 Bang to output harmonicity and inharmonicity, f 18
;
#X obj 170 309 tgl 15 0 empty empty empty 17 7 0 10 -262144 -1 -1 0
1;
#X obj 170 329 metro 100;
#X obj 170 351 t b b;
#X obj 170 191 *~;
#X obj 200 191 tgl 15 0 empty empty empty 17 7 0 10 -262144 -1 -1 0
1;
#X obj 50 233 +~;
#X obj 50 521 specHarmonicity~ 4096;
#X obj 50 42 loadbang;
#X msg 50 64 57;
#X obj 50 106 mtof;
#N canvas 505 281 757 408 get-spectrum-and-pitch 0;
#X obj 355 248 mtof;
#X obj 297 199 moses 0;
#N canvas 205 170 525 260 do-plotting 0;
#X obj 79 37 inlet;
#X obj 79 173 list prepend 0;
#X obj 203 76 list length;
#X obj 203 138 change;
#X obj 203 160 pack f \$0;
#X obj 79 59 t l l;
#X obj 79 194 s \$0-magSpec-graph;
#X msg 203 181 \; \$2-magSpec-graph resize \$1 \;;
#X obj 203 98 / 8;
#X text 253 100 only show the first 1/8th of the spectrum;
#X connect 0 0 5 0;
#X connect 1 0 6 0;
#X connect 2 0 8 0;
#X connect 3 0 4 0;
#X connect 4 0 7 0;
#X connect 5 0 1 0;
#X connect 5 1 2 0;
#X connect 8 0 3 0;
#X restore 109 232 pd do-plotting;
#X obj 109 203 magSpec~ 4096;
#X obj 267 324 outlet;
#X obj 65 21 inlet~;
#X obj 65 324 outlet~;
#X obj 195 21 inlet;
#X text 290 53 If you choose to use the "input_fund" feature to specify
the fundamental frequency via [cepstrumPitch~] or [sigmund~] \, do
pitch analysis BEFORE harmonicity measure by putting [sigmund~] in
a series-patched subpatch connected to [specHarmonicity~].;
#X obj 195 43 t b b;
#X obj 267 280 f;
#X obj 297 177 sigmund~ pitch -npts 4096 -hop 512 -maxfreq 3000;
#X floatatom 277 304 10 0 0 1 Hz - -;
#X connect 0 0 10 1;
#X connect 1 1 0 0;
#X connect 3 0 2 0;
#X connect 5 0 3 0;
#X connect 5 0 6 0;
#X connect 5 0 11 0;
#X connect 7 0 9 0;
#X connect 9 0 3 0;
#X connect 9 1 10 0;
#X connect 10 0 4 0;
#X connect 10 0 12 0;
#X connect 11 0 1 0;
#X restore 50 396 pd get-spectrum-and-pitch;
#X obj 67 288 dac~;
#X text 47 650 Outlet 1: spectrum harmonicity;
#X text 47 670 Outlet 2: spectrum inharmonicity;
#X text 47 610 Inlet 2: fundamental frequency in Hz (not MIDI!). Only
used in algorithm when "input_fund" setting is ON.;
#X text 595 64 [specHarmonicity~] quantifies how harmonically and inharmonically
spectral peaks are aligned. It does this by finding significant spectral
peaks (based on a percent threshold parameter) \, and then seeing how
well they align with peaks expected for a given fundamental. When the
"input_fund" feature is active \, the fundamental frequency (in Hz)
can be supplied via the right inlet using whatever pitch detection
method you prefer (e.g. \, [sigmund~ pitch] \, [cepstrumPitch~] \,
etc.). Alternatively \, [specHarmonicity~] will assume that the lowest
non-DC peak in the spectrum is the fundamental. This could be useful
for cases when the spectrum is relatively inharmonic (and therefore
may not work well with pitch-tracking algorithms) \, but you still
want some measure of harmonicity.;
#N canvas 636 50 736 321 inharmonic 0;
#X obj 61 43 inlet;
#X obj 61 251 outlet~;
#X obj 61 65 t f f f f f f f f;
#X obj 61 107 * 1;
#X obj 61 129 osc~;
#X obj 61 151 *~ 1;
#X obj 61 213 /~ 4;
#X obj 101 129 osc~;
#X obj 161 129 osc~;
#X obj 241 129 osc~;
#X obj 301 129 osc~;
#X obj 371 129 osc~;
#X obj 461 129 osc~;
#X obj 531 129 osc~;
#X obj 101 151 *~ 0.5;
#X obj 161 151 *~ 0.333333;
#X obj 241 151 *~ 0.25;
#X obj 301 151 *~ 0.2;
#X obj 371 151 *~ 0.166666;
#X obj 531 151 *~ 0.125;
#X obj 461 151 *~ 0.14286;
#X obj 301 107 * 4.9;
#X obj 101 107 * 1.87;
#X obj 161 107 * 3.23;
#X obj 241 107 * 4.17;
#X obj 372 107 * 6.21;
#X obj 461 107 * 7.11;
#X obj 531 107 * 8.32;
#X connect 0 0 2 0;
#X connect 2 0 3 0;
#X connect 2 1 22 0;
#X connect 2 2 23 0;
#X connect 2 3 24 0;
#X connect 2 4 21 0;
#X connect 2 5 25 0;
#X connect 2 6 26 0;
#X connect 2 7 27 0;
#X connect 3 0 4 0;
#X connect 4 0 5 0;
#X connect 5 0 6 0;
#X connect 6 0 1 0;
#X connect 7 0 14 0;
#X connect 8 0 15 0;
#X connect 9 0 16 0;
#X connect 10 0 17 0;
#X connect 11 0 18 0;
#X connect 12 0 20 0;
#X connect 13 0 19 0;
#X connect 14 0 6 0;
#X connect 15 0 6 0;
#X connect 16 0 6 0;
#X connect 17 0 6 0;
#X connect 18 0 6 0;
#X connect 19 0 6 0;
#X connect 20 0 6 0;
#X connect 21 0 10 0;
#X connect 22 0 7 0;
#X connect 23 0 8 0;
#X connect 24 0 9 0;
#X connect 25 0 11 0;
#X connect 26 0 12 0;
#X connect 27 0 13 0;
#X restore 170 159 pd inharmonic;
#X text 595 264 The two outlets supply separate harmonicity and inharmonicity
measurements between 0 and 1 \, with -1 being output when the algorithm
fails due to inappropriate input like silence. At left \, you can activate
either a very harmonic sawtooth signal \, or a signal concocted to
be inharmonic. The "input_fund" feature is disabled by default \, but
you can enable it to use pitch tracking output from [sigmund~].;
#X obj 67 266 *~ 0.05;
#X obj 787 682 declare -lib timbreID/timbreIDLib;
#X connect 3 0 23 0;
#X connect 10 0 22 0;
#X connect 11 0 10 1;
#X connect 14 0 10 0;
#X connect 17 0 18 0;
#X connect 18 0 19 0;
#X connect 19 0 23 0;
#X connect 19 1 27 1;
#X connect 20 0 22 1;
#X connect 21 0 20 1;
#X connect 22 0 27 0;
#X connect 22 0 35 0;
#X connect 23 0 0 0;
#X connect 23 1 12 0;
#X connect 24 0 25 0;
#X connect 25 0 26 0;
#X connect 26 0 14 0;
#X connect 26 0 33 0;
#X connect 27 0 23 0;
#X connect 27 1 23 1;
#X connect 33 0 20 0;
#X connect 35 0 28 0;
#X connect 35 0 28 1;
