#N canvas 213 96 963 670 10;
#X declare -lib timbreID/timbreIDLib;
#X obj 59 583 nbx 7 32 -1e+37 1e+37 0 0 empty empty empty 0 -8 0 32
-262144 -1 -1 0 256;
#X obj 704 86 specFlux~;
#X obj 133 227 hsl 400 15 0 128000 0 0 empty empty Scrub -2 -8 0 12
-191407 -1 -1 0 1;
#X text 514 60 See the real-time version for more information on spectral
flux in general.;
#X obj 4 5 cnv 10 400 10 empty empty empty 20 12 0 14 -233017 -66577
0;
#X obj 4 5 cnv 10 10 400 empty empty empty 20 12 0 14 -233017 -66577
0;
#N canvas 471 170 850 654 other-settings 0;
#X obj 54 66 hradio 15 1 0 5 empty empty empty 0 -8 0 10 -262144 -1
-1 0;
#X msg 54 86 window_function \$1;
#X msg 110 148 set another-sample-array;
#X msg 149 204 samplerate 48000;
#X text 298 147 Read from a different array;
#X msg 175 257 power_spectrum \$1;
#X obj 175 239 tgl 15 0 empty empty empty 17 7 0 10 -262144 -1 -1 0
1;
#X obj 54 605 outlet;
#X text 283 203 Specify your sample's sampling rate. (default: 44100)
;
#X text 316 257 Use power spectrum. (default: magnitude);
#X msg 286 422 separation 128;
#X obj 255 349 tgl 15 0 empty empty empty 17 7 0 10 -262144 -1 -1 0
1;
#X msg 255 367 normalize \$1;
#X text 434 490 Squared difference vs. Absolute value of difference.
;
#X msg 321 490 squared_diff \$1;
#X obj 321 470 tgl 15 0 empty empty empty 17 7 0 10 -262144 -1 -1 0
1;
#X text 52 29 Change windowing function. Rectangular (0) \, Blackman
(1) \, Cosine (2) \, Hamming (3) \, or Hann (4). (default: Blackman)
;
#X msg 366 532 print;
#X text 413 416 Set separation in samples between analysis windows
(default: half of current window size);
#X text 186 116 Change internal window size setting;
#X msg 84 116 window 2000;
#X text 356 367 Normalize spectrum. (default: OFF);
#X obj 215 289 tgl 15 0 empty empty empty 17 7 0 10 -262144 -1 -1 0
1;
#X msg 215 307 log_spectrum \$1;
#X text 336 307 Use the natural logarithm of spectrum values. (default:
OFF);
#X connect 0 0 1 0;
#X connect 1 0 7 0;
#X connect 2 0 7 0;
#X connect 3 0 7 0;
#X connect 5 0 7 0;
#X connect 6 0 5 0;
#X connect 10 0 7 0;
#X connect 11 0 12 0;
#X connect 12 0 7 0;
#X connect 14 0 7 0;
#X connect 15 0 14 0;
#X connect 17 0 7 0;
#X connect 20 0 7 0;
#X connect 22 0 23 0;
#X connect 23 0 7 0;
#X restore 182 321 pd other-settings;
#N canvas 0 50 450 300 (subpatch) 0;
#X array \$0-waveform 1024 float 0;
#X coords 0 1 1023 -1 200 140 1 0 0;
#X restore 653 198 graph;
#N canvas 666 270 552 163 soundfile 0;
#X obj 50 93 soundfiler;
#X msg 50 68 read -skip 120000 ./audio/testing.wav \$1-sample;
#X obj 50 24 loadbang;
#X obj 50 46 f \$0;
#X obj 185 100 table \$0-sample 130000;
#X connect 1 0 0 0;
#X connect 2 0 3 0;
#X connect 3 0 1 0;
#X restore 653 355 pd soundfile;
#N canvas 722 238 369 330 waveform 0;
#X obj 46 61 inlet;
#X obj 46 82 t f f;
#X obj 46 284 outlet;
#X obj 131 131 + 1023;
#X obj 86 164 pack f f \$0;
#X msg 86 200 copy_range 0 \$3-sample \$1 \$2;
#X obj 86 241 tabletool \$0-waveform;
#X connect 0 0 1 0;
#X connect 1 0 2 0;
#X connect 1 0 4 0;
#X connect 1 1 3 0;
#X connect 3 0 4 1;
#X connect 4 0 5 0;
#X connect 5 0 6 0;
#X restore 130 247 pd waveform;
#X text 237 496 Creation arguments are the name of the sample array
to read from \, and separation in samples between analysis windows.
;
#N canvas 0 50 450 278 (subpatch) 0;
#X array \$0-bin-diffs 513 float 0;
#X coords 0 5 512 -5 200 140 1 0 0;
#X restore 653 398 graph;
#X msg 59 74 analyze 44100 2000;
#X text 77 104 Analyze a FORWARD window starting at sample 44100 that
is 2000 samples long (samples 44100 - 46099). The BACK analysis window
will start N samples earlier \, where N is set by the "separation"
argument to [specFlux]. Flux is the spectral difference between these
windows. Passing a starting sample that isn't at least N samples forward
from the beginning of the array may produce incorrect flux values.
;
#X msg 130 276 analyze \$1 1024;
#X obj 59 504 specFlux \$0-sample 256;
#N canvas 0 81 450 300 do-plotting 0;
#X obj 71 31 inlet;
#X obj 71 141 list prepend 0;
#X obj 71 70 t l l;
#X obj 193 121 list length;
#X obj 71 163 s \$0-bin-diffs;
#X msg 193 188 \; \$2-bin-diffs resize \$1 \;;
#X obj 193 143 change;
#X obj 193 165 pack f \$0;
#X connect 0 0 2 0;
#X connect 1 0 4 0;
#X connect 2 0 1 0;
#X connect 2 1 3 0;
#X connect 3 0 6 0;
#X connect 6 0 7 0;
#X connect 7 0 5 0;
#X restore 244 548 pd do-plotting;
#X msg 232 406 mode flux;
#X msg 252 446 mode decay;
#X msg 242 426 mode growth;
#X text 347 405 Change modes to report flux \, spectral growth only
\, or spectral decay only. This affects the output of both outlets
, f 34;
#N canvas 351 117 1043 655 chain_messages 0;
#X msg 563 289 chain_fftData <data>;
#X msg 643 449 chain_magSpec <data>;
#X obj 427 573 outlet;
#X obj 34 159 adc~;
#X obj 34 243 tID_fft~;
#X obj 34 281 list append;
#X obj 34 470 list prepend chain_fftData;
#X obj 34 488 list trim;
#X obj 114 173 bng 15 250 50 0 empty empty empty 17 7 0 10 -262144
-1 -1;
#X text 226 459 Prepend the "chain_fftData" message in front of the
analysis data \, then trim off the list selector to make it a message
to timbreID analysis objects., f 33;
#X text 559 175 The object in this help file accepts the chain_ messages
listed below \, which should be followed by the associated data as
a single list. In practice \, these messages are prepended to analysis
results via [list prepend] \, followed by a [list trim] to remove the
list selector. This is illustrated in the example at left.;
#X text 98 15 To minimize redundant calculations on the same window
of audio \, most of timbreID's non-real-time analysis objects have
various chain_ methods. For example \, because many types of analysis
start with an FFT \, it is more efficient to do a single FFT at the
start of an analysis chain \, and pass the results to other analysis
objects that require FFT data. chain_ methods make it possible to bypass
various steps of the analysis calculation if the data is already available.
Here \, note that the FFT data originated with a real-time analysis
object \, but non-real-time objects can be used for consequent chain_
calculations.;
#X text 164 158 [tID_fft~] outputs (N/2)+1 real values from the left
outlet \, and (N/2)+1 imaginary values from the right. The imaginary
values are appended to the real ones to form one long list (N+2 values
total) of complex frequency domain data., f 50;
#X obj 34 332 list append;
#X text 718 288 fftData <data> should consist of (window/2)+1 real
values and (window/2)+1 imaginary values for the forward window \,
followed by (window/2)+1 real values and (window/2)+1 imaginary values
for the back window \, all packaged together as one long list., f
31;
#X obj 154 243 tID_fft~;
#X obj 154 281 list append;
#X obj 64 203 delay 5;
#X text 152 312 Spectral flux is a special case \, because measurements
must be taken on two windows \, separated by some number of samples
or milliseconds. Here \, the analysis button is delayed by 5ms to produce
the FORWARD WINDOW data (i.e. \, the most recent data) \, while the
direct bang from the analysis button generates the BACK WINDOW data.
They are combined into a single list that is 4*(N/2+1) elements long
\, containing the FORWARD WINDOW real/imaginary data \, followed by
the BACK WINDOW real/imaginary data., f 49;
#X text 791 442 magSpec <data> should consist of (window/2)+1 magnitudes
for the forward window \, followed by (window/2)+1 magnitudes for the
back window., f 25;
#X connect 0 0 2 0;
#X connect 1 0 2 0;
#X connect 3 0 4 0;
#X connect 3 0 15 0;
#X connect 4 0 5 0;
#X connect 4 1 5 1;
#X connect 5 0 13 0;
#X connect 6 0 7 0;
#X connect 7 0 2 0;
#X connect 8 0 15 0;
#X connect 8 0 17 0;
#X connect 13 0 6 0;
#X connect 15 0 16 0;
#X connect 15 1 16 1;
#X connect 16 0 13 1;
#X connect 17 0 4 0;
#X restore 212 351 pd chain_messages;
#X obj 714 637 declare -lib timbreID/timbreIDLib;
#X text 713 595 Updated for timbreID version 0.9.0;
#X text 713 615 May 2021;
#X connect 2 0 9 0;
#X connect 6 0 15 0;
#X connect 9 0 14 0;
#X connect 12 0 15 0;
#X connect 14 0 15 0;
#X connect 15 0 0 0;
#X connect 15 1 16 0;
#X connect 17 0 15 0;
#X connect 18 0 15 0;
#X connect 19 0 15 0;
#X connect 21 0 15 0;
