#N canvas 280 81 879 483 10;
#X declare -lib timbreID/timbreIDLib;
#X obj 119 162 bng 15 250 50 0 empty empty empty 17 7 0 10 -262144
-1 -1;
#X floatatom 70 414 10 0 0 0 - - -;
#X text 133 215 Change window size.;
#X obj 70 111 +~;
#X obj 70 57 osc~ 400;
#X obj 88 80 osc~ 500;
#X obj 70 361 specCentroid~ 1024;
#X text 116 144 Bang to output centroid.;
#X obj 4 4 cnv 10 400 10 empty empty empty 20 12 0 14 -233017 -66577
0;
#X obj 4 4 cnv 10 10 400 empty empty empty 20 12 0 14 -233017 -66577
0;
#X text 425 44 Spectral Centroid is the center of mass of magnitude
spectrum \, and is a common low-level timbre feature. It is computed
as the ratio of the sum of spectral magnitude weighted by frequency
to the sum of spectral magnitude. Therefore \, it reports the frequency
associated with spectral center of mass. This is clearly demonstrated
at left \, where two perfect spikes in the spectrum at 400 Hz and 500
Hz produce a centroid near 450 Hz.;
#N canvas 676 230 642 497 other-settings 0;
#X obj 54 86 hradio 15 1 0 5 empty empty empty 0 -8 0 10 -262144 -1
-1 0;
#X msg 54 106 window_function \$1;
#X msg 175 247 power_spectrum \$1;
#X obj 175 229 tgl 15 0 empty empty empty 17 7 0 10 -262144 -1 -1 0
1;
#X obj 54 415 outlet;
#X text 316 247 Use power spectrum. (default: magnitude);
#X msg 215 305 print;
#X msg 104 168 overlap 2;
#X text 185 156 Inside a subpatch with re-blocking involving overlap
(e.g. \, [block~ 4096 2]) \, you'll need to change the overlap for
things to behave properly;
#X text 52 49 Change windowing function. Rectangular (0) \, Blackman
(1) \, Cosine (2) \, Hamming (3) \, or Hann (4). (default: Blackman)
;
#X connect 0 0 1 0;
#X connect 1 0 4 0;
#X connect 2 0 4 0;
#X connect 3 0 2 0;
#X connect 6 0 4 0;
#X connect 7 0 4 0;
#X restore 181 289 pd other-settings;
#X text 616 406 Updated for timbreID version 0.7;
#X obj 592 325 timbreID;
#X text 425 260 This feature can be sent to the timbreID external in
order to identify timbres in real time. For more on using audio features
for classification \, see the timbreID helpfile:;
#X text 425 170 Audio buffering and windowing are taken care of by
the external \, so there is no need for tabreceive~ or block~. You
can set the window size with a creation argument \, or change it with
the "window" message. Window size is not required to be a power of
two.;
#X text 210 361 Creation argument is window size in samples;
#X msg 135 233 window 2000;
#X text 616 426 July 2017;
#X obj 617 447 declare -lib timbreID/timbreIDLib;
#X connect 0 0 6 0;
#X connect 3 0 6 0;
#X connect 4 0 3 0;
#X connect 5 0 3 1;
#X connect 6 0 1 0;
#X connect 11 0 6 0;
#X connect 17 0 6 0;
