#N canvas 279 191 884 737 10;
#X declare -lib timbreID/timbreIDLib;
#X obj 51 289 bng 15 250 50 0 empty empty empty 17 7 0 10 -262144 -1
-1;
#N canvas 0 50 450 300 (subpatch) 0;
#X array \$0-waveform 1024 float 0;
#X coords 0 1 1023 -1 200 140 1 0 0;
#X restore 48 48 graph;
#X text 73 286 Bang to analyze the entire array.;
#N canvas 919 483 552 276 soundfile 0;
#X obj 50 83 soundfiler;
#X obj 50 14 loadbang;
#X obj 50 36 f \$0;
#X obj 50 145 pack f \$0;
#X msg 50 167 \; \$2-scrub-bar-set range 0 \$1 \;;
#X obj 50 105 - 1024;
#X msg 50 58 read -skip 244600 ./audio/testing.wav \$1-sample;
#X obj 185 100 table \$0-sample 52000;
#X connect 0 0 5 0;
#X connect 1 0 2 0;
#X connect 2 0 6 0;
#X connect 3 0 4 0;
#X connect 5 0 3 0;
#X connect 6 0 0 0;
#X restore 490 497 pd soundfile;
#N canvas 723 239 304 333 waveform 0;
#X obj 46 61 inlet;
#X obj 46 82 t f f;
#X obj 91 131 + 1023;
#X msg 46 200 copy_range 0 \$3-sample \$1 \$2;
#X obj 46 241 tabletool \$0-waveform;
#X obj 46 164 pack f f \$0;
#X connect 0 0 1 0;
#X connect 1 0 5 0;
#X connect 1 1 2 0;
#X connect 2 0 5 1;
#X connect 3 0 4 0;
#X connect 5 0 3 0;
#X restore 490 549 pd waveform;
#X obj 51 244 hsl 800 25 0 50976 0 0 \$0-scrub-bar \$0-scrub-bar-set
Scrub-bar -2 -8 0 12 -191407 -1 -1 0 1;
#X obj 4 4 cnv 10 400 10 empty empty empty 20 12 0 14 -233017 -66577
0;
#X obj 4 4 cnv 10 10 400 empty empty empty 20 12 0 14 -233017 -66577
0;
#N canvas 0 50 450 278 (subpatch) 0;
#X array \$0-slope-graph 2 float 1;
#A 0 1.58351e-05 -1.58351e-05;
#X coords 0 0.35 1 -0.35 200 140 1 0 0;
#X restore 48 48 graph;
#X obj 134 386 r \$0-scrub-bar;
#X msg 99 334 analyze 44100 2000;
#X text 245 328 Analyze a window starting at sample 44100 that is 2000
samples long (samples 44100 - 46099);
#X msg 134 411 analyze \$1 1024;
#X obj 490 527 r \$0-scrub-bar;
#X text 623 651 Updated for timbreIDLib version 0.7;
#N canvas 590 90 654 440 other-settings 0;
#X obj 44 62 tgl 15 0 empty empty empty 17 7 0 10 -262144 -1 -1 0 1
;
#X msg 44 80 normalize \$1;
#X msg 84 132 set another-sample-array;
#X msg 123 188 samplerate 48000;
#X text 272 131 Read from a different array;
#X obj 44 375 outlet;
#X text 257 187 Specify your sample's sampling rate. (default: 44100)
;
#X msg 193 244 print;
#X text 243 246 Print current settings in the post window;
#X text 148 72 Normalize the waveform in the analysis window so that
the peak amplitude is 1 (default: OFF);
#X connect 0 0 1 0;
#X connect 1 0 5 0;
#X connect 2 0 5 0;
#X connect 3 0 5 0;
#X connect 7 0 5 0;
#X restore 196 480 pd other-settings;
#X text 269 392 Use the slider above to move through the audio file
, f 27;
#X obj 51 547 waveSlope \$0-sample;
#N canvas 654 581 671 360 graph-slope 0;
#X obj 114 125 nbx 7 32 -1e+37 1e+37 0 0 empty empty empty 0 -8 0 32
-262144 -1 -1 0 256;
#X obj 114 55 inlet;
#X msg 538 242 1;
#X obj 403 227 / 2;
#X obj 403 267 tabwrite \$0-slope-graph;
#X obj 403 205 t f b;
#X obj 193 267 tabwrite \$0-slope-graph;
#X obj 193 205 t f b;
#X obj 193 227 / -2;
#X msg 328 242 0;
#X connect 1 0 0 0;
#X connect 1 0 7 0;
#X connect 1 0 5 0;
#X connect 2 0 4 1;
#X connect 3 0 4 0;
#X connect 5 0 3 0;
#X connect 5 1 2 0;
#X connect 7 0 8 0;
#X connect 7 1 9 0;
#X connect 8 0 6 0;
#X connect 9 0 6 1;
#X coords 0 -1 1 1 250 70 1 100 100;
#X restore 51 593 pd graph-slope;
#X text 212 541 Creation argument is the name of the sample array to
read from, f 33;
#X obj 628 450 waveSlope~;
#X text 626 401 See the real-time version for more information on waveform
slope in general., f 33;
#X text 623 671 July 2017;
#X text 342 88 Note that quiet moments between sound events will produce
erratic slope reports that constantly change between positive and negative
values. A basic amplitude threshold before analysis can be used to
filter this information out if it's not needed.;
#X obj 625 695 declare -lib timbreID/timbreIDLib;
#X connect 0 0 17 0;
#X connect 9 0 12 0;
#X connect 10 0 17 0;
#X connect 12 0 17 0;
#X connect 13 0 4 0;
#X connect 15 0 17 0;
#X connect 17 0 18 0;
