#N canvas 185 144 904 483 10;
#X declare -lib timbreID/timbreIDLib;
#X obj 119 162 bng 15 250 50 0 empty empty empty 17 7 0 10 -262144
-1 -1;
#X floatatom 70 414 10 0 0 0 - - -;
#X text 133 215 Change window size.;
#X obj 70 111 +~;
#X obj 4 4 cnv 10 400 10 empty empty empty 20 12 0 14 -233017 -66577
0;
#X obj 4 4 cnv 10 10 400 empty empty empty 20 12 0 14 -233017 -66577
0;
#N canvas 676 230 576 318 other-settings 0;
#X obj 54 225 outlet;
#X msg 165 135 print;
#X msg 54 68 overlap 2;
#X text 135 56 Inside a subpatch with re-blocking involving overlap
(e.g. \, [block~ 4096 2]) \, you'll need to change the overlap for
things to behave properly;
#X connect 1 0 0 0;
#X connect 2 0 0 0;
#X restore 181 289 pd other-settings;
#X text 636 402 Updated for timbreID version 0.7;
#X obj 592 320 timbreID;
#X text 425 255 This feature can be sent to the timbreID external in
order to identify timbres in real time. For more on using audio features
for classification \, see the timbreID helpfile:;
#X text 220 361 Creation argument is window size in samples;
#X msg 135 233 window 2000;
#X obj 70 43 noise~;
#X obj 70 77 *~;
#X obj 98 77 tgl 15 0 empty empty empty 17 7 0 10 -262144 -1 -1 0 1
;
#X obj 120 77 *~;
#X obj 148 77 tgl 15 0 empty empty empty 17 7 0 10 -262144 -1 -1 0
1;
#X obj 120 43 osc~ 440;
#X text 116 144 Bang to output zero crossings;
#X obj 70 361 zeroCrossing~ 1024;
#X text 636 422 July 2017;
#X text 425 54 A simple way to measure a signal's noisiness is to count
the number of times it crosses 0 in a given window. This information
is also related to frequency. Zero crossing is sometimes used as a
crude timbre feature. Select either noise~ or osc~ and bang zeroCrossing~
to see the different ranges of values. Note that with a real signal
\, low level noise will produce lots of zero crossings \, so it's best
to use a basic amplitude threshold before measuring crossings.;
#X text 425 175 Audio buffering is taken care of by the external \,
so there is no need for [block~]. You can set the window size with
a creation argument \, or change it with the "window" message. Window
size is not required to be a power of two.;
#X obj 637 445 declare -lib timbreID/timbreIDLib;
#X connect 0 0 19 0;
#X connect 3 0 19 0;
#X connect 6 0 19 0;
#X connect 11 0 19 0;
#X connect 12 0 13 0;
#X connect 13 0 3 0;
#X connect 14 0 13 1;
#X connect 15 0 3 1;
#X connect 16 0 15 1;
#X connect 17 0 15 0;
#X connect 19 0 1 0;
